<svg xmlns="http://www.w3.org/2000/svg" width="479.61723" height="348.1091" viewBox="0 0 479.61723 348.1091">
  <g>
    <path d="M292.53559,0c1.64364.36791,3.3066.67215,4.93115,1.11468A28.73545,28.73545,0,1,1,283.92625.62881,10.30174,10.30174,0,0,0,286.77112,0Z" style="fill: #020101;fill-rule: evenodd"/>
    <path d="M250.17913,347.85657a.98509.98509,0,0,0-.0048.25253H229.42409a1.2639,1.2639,0,0,0-.00481-.25253Z" style="fill: #020101;fill-rule: evenodd"/>
    <path d="M250.17913,347.85657H229.41928c-7.53308-.29095-15.06629-.52662-22.59457-.89219-7.28547-.356-14.55653-.93072-21.82034-1.61371q-11.67307-1.1002-23.29333-2.64762-14.67431-1.94795-29.21157-4.72552a488.31554,488.31554,0,0,1-51.234-12.6014c-23.26919-7.13759-45.9012-15.831-67.27422-27.59553Q7.318,294.10469.96311,289.90953A1.68552,1.68552,0,0,1,0,288.34162q.04859-25.7163.02881-51.43234a3.49048,3.49048,0,0,1,.06489-.45693,5.45593,5.45593,0,0,1,1.835,1.0653c15.552,10.11717,32.26935,17.90882,49.48914,24.67125a452.88011,452.88011,0,0,0,72.53239,21.39592q21.2414,4.46567,42.76537,7.19769c15.81183,2.01277,31.67649,3.32593,47.599,4.03527q23.69059,1.04977,47.379.17324c11.99045-.43058,23.95821-1.27709,35.90187-2.46982,37.99638-3.79,75.22457-11.24022,111.46183-23.38949,21.12541-7.07985,41.629-15.60264,60.91823-26.85726,3.1793-1.85418,6.27065-3.855,9.43666-5.81016.34511.32716.15032.77928.15032,1.1712q.0216,25.21116.03718,50.42232a2.02627,2.02627,0,0,1-1.08328,1.94074,244.52344,244.52344,0,0,1-38.18649,20.09717,435.29286,435.29286,0,0,1-75.96052,24.2552q-21.5768,4.90227-43.48788,7.96243-22.23705,3.12037-44.65908,4.45378C267.54692,347.29141,258.86064,347.52228,250.17913,347.85657Z" style="fill: #e7ae40;fill-rule: evenodd"/>
    <path d="M417.99251,75.51923c-5.7151,0-11.42786-.0085-17.143.0096-.7911.00357-1.30454-.03251-1.44048-1.06173-1.21441-9.25626-5.72469-14.40744-14.83062-16.55737a43.90506,43.90506,0,0,0-22.60307.58436,14.29654,14.29654,0,0,0-6.29713,3.86942,9.94805,9.94805,0,0,0,2.8594,16.324,56.515,56.515,0,0,0,9.36917,3.13594c10.27107,2.88095,20.74544,4.93595,31.09224,7.50551,9.43417,2.34349,18.4656,5.71387,26.35945,11.57931,10.17122,7.55721,14.86313,17.75134,14.85352,30.37551-.01083,20.60224-13.12321,36.44535-32.12626,42.4924-11.85709,3.77313-24.06041,4.55351-36.39006,4.18561a96.06742,96.06742,0,0,1-25.64162-3.88025c-13.47548-4.1568-23.74656-12.17931-30.00638-24.9851a47.0517,47.0517,0,0,1-4.42016-19.60306c-.024-.80563.17078-1.08094,1.01248-1.07971q17.64859.036,35.29459.00234c.79245-.00123,1.05582.2369,1.13512,1.045a36.59225,36.59225,0,0,0,1.20369,5.90016c1.76024,6.504,6.25379,10.20865,12.45217,12.15776,6.546,2.05735,13.27835,2.33266,20.066,2.044a33.52393,33.52393,0,0,0,14.53489-3.4642,10.71346,10.71346,0,0,0,3.56761-16.10635,12.26326,12.26326,0,0,0-5.34006-3.75639,173.33806,173.33806,0,0,0-17.95327-5.4686c-9.54486-2.60686-19.2929-4.43211-28.721-7.48506a82.418,82.418,0,0,1-18.17933-8.05736A29.31826,29.31826,0,0,1,316.507,83.94215c-1.81441-11.6767.14788-22.62954,6.97766-32.4629C331.108,40.5,341.64476,33.84329,354.57441,30.818c9.1973-2.15239,18.51486-2.40961,27.89252-1.81207a84.80445,84.80445,0,0,1,26.24531,5.72951c15.04462,6.00014,23.45684,17.25476,26.47963,32.87907.43649,2.2557.67215,4.54871,1.0882,6.80811.17312.94267-.11057,1.12182-1.00164,1.11578C429.51654,75.50113,423.75452,75.51923,417.99251,75.51923Z" style="fill: #020101;fill-rule: evenodd"/>
    <path d="M64.77793,52.78983c2.72112-3.61442,5.31111-7.12553,8.26421-10.35641A38.89859,38.89859,0,0,1,96.54946,30.16509c11.88837-1.83732,23.54216-.93787,34.72106,3.81893,13.29768,5.65982,20.99428,15.76135,23.54106,29.91145a80.49866,80.49866,0,0,1,1.25048,14.32321q.0072,46.7536.03609,93.50734c.00123,1.37558-.42209,1.62332-1.68095,1.61851q-17.21752-.06852-34.43491.00234c-1.2974.006-1.66174-.303-1.66174-1.63883q.06483-41.49432.024-82.98988a53.67856,53.67856,0,0,0-1.29383-13.29153c-2.20768-8.7007-8.19452-14.031-17.10085-15.14447a33.363,33.363,0,0,0-16.85422,1.74829c-8.126,3.26461-12.59057,9.69989-15.01225,17.79468-1.77957,5.9435-2.15954,12.06382-2.1572,18.22747q.0144,36.812.03375,73.6254c.00233,1.3022-.303,1.67848-1.645,1.67134q-16.85664-.08478-33.71463-.00727c-1.13265.0037-1.53552-.17669-1.53552-1.44774q.05781-68.79582.0096-137.59412c-.00233-1.10741.24773-1.43924,1.40452-1.43444q16.42371.072,32.85014-.00123c1.248-.00726,1.48615.38958,1.47408,1.54156-.05775,5.61771-.02523,11.23653-.02523,16.85546Z" style="fill: #020101;fill-rule: evenodd"/>
    <path d="M235.87637,178.0724c-11.58179-.10823-22.43723-1.51263-32.78046-5.81373-12.20813-5.07779-21.14327-13.78453-27.87208-24.9766a78.88976,78.88976,0,0,1-10.71112-31.05494c-1.92635-15.16614-.84652-30.03161,4.67023-44.40174a72.24233,72.24233,0,0,1,18.45353-27.907c7.84694-7.20248,17.24024-11.40373,27.55576-13.669a100.67734,100.67734,0,0,1,29.19843-1.699c1.57639.1166,3.14073.434,4.71713.517,1.022.05295,1.08342.56762,1.13869,1.38162a39.03756,39.03756,0,0,0,7.90111,21.48962A38.81523,38.81523,0,0,0,284.8353,67.4498a38.30659,38.30659,0,0,0,13.71238-.66859c.784-.18038,1.06776-.0277,1.37915.67093a83.21564,83.21564,0,0,1,6.48465,22.79551,96.12044,96.12044,0,0,1,.52785,21.40307c-1.63772,18.783-8.31346,35.41009-21.64119,48.99626-7.89619,8.05133-17.74888,12.64941-28.64641,15.16725A98.7331,98.7331,0,0,1,235.87637,178.0724ZM268.748,103.35289a71.23868,71.23868,0,0,0-2.4697-19.93255c-2.20892-7.52964-5.79206-14.23432-12.40784-18.79386-8.63335-5.94843-18.23228-6.5376-28.0777-4.13636-9.96806,2.43251-16.14969,9.25145-19.9589,18.4512a57.006,57.006,0,0,0-3.85624,18.4475,75.96247,75.96247,0,0,0,2.12593,24.9574c1.87092,6.86351,4.96956,13.08713,10.473,17.78741,8.31606,7.10633,18.10127,8.25708,28.40719,6.33074,10.30962-1.92621,17.05875-8.39042,21.21678-17.75367C267.80783,120.58709,268.69645,111.94647,268.748,103.35289Z" style="fill: #020101;fill-rule: evenodd"/>
    <path d="M237.75208,205.65833c0-5.45173.03485-10.82417-.03126-16.19415-.01085-1.099.28134-1.40932,1.3491-1.32263a26.43644,26.43644,0,0,0,3.59767.00714c.79-.04322.94267.26214.94267.986q-.02882,23.97392,0,47.94771c0,.73113-.16475,1.02688-.94747.9812a30.10642,30.10642,0,0,0-3.45458.00234c-.86093.05048-1.20359-.17065-1.135-1.09891.08533-1.176.018-2.3616.018-3.93677a12.91387,12.91387,0,0,1-7.41045,5.5985,14.15023,14.15023,0,0,1-17.35216-8.631,24.2264,24.2264,0,0,1,2.23047-23.43763c4.70507-7.21923,16.69317-7.574,21.40909-1.42126C237.12561,205.34817,237.24467,205.65118,237.75208,205.65833Zm-19.83268,14.5084a16.99946,16.99946,0,0,0,.60726,5.37c.92938,3.42455,2.33869,6.53883,6.01922,7.85913,5.3749,1.931,10.38534-.54115,12.296-6.21291a23.31716,23.31716,0,0,0,.36187-13.60784c-1.17351-4.43458-4.532-7.37327-8.38808-7.50551-4.71826-.16117-8.17409,2.239-9.83582,6.84419A20.094,20.094,0,0,0,217.9194,220.16673Z" style="fill: #020101;fill-rule: evenodd"/>
    <path d="M311.00107,233.02546a12.88983,12.88983,0,0,1-7.42731,5.60564,14.14465,14.14465,0,0,1-17.34009-8.64776,24.22229,24.22229,0,0,1,2.24252-23.43517c4.70866-7.21455,16.70168-7.55968,21.41033-1.39725.15514.202.27051.51947.77189.493v-7.84583c0-2.78355.06378-5.56956-.03-8.34831-.03731-1.13032.32592-1.39245,1.36475-1.3059a23.38807,23.38807,0,0,0,3.30906.00481c.88134-.05049,1.22893.1395,1.22647,1.14472q-.05226,23.82948-.00478,47.65909c.00246.88258-.214,1.18079-1.111,1.1159a28.54235,28.54235,0,0,0-3.45458-.0048c-.75393.03608-1.01127-.19959-.974-.9668C311.04565,235.87513,311.00107,234.64631,311.00107,233.02546Zm-20.17535-13.09674a18.72058,18.72058,0,0,0,2.07544,9.42937,8.12692,8.12692,0,0,0,4.63886,4.069c5.35321,1.83485,10.28066-.57722,12.19259-6.1937a23.25285,23.25285,0,0,0,.25007-14.16339,9.27634,9.27634,0,0,0-8.2077-7.00044,9.49838,9.49838,0,0,0-9.73005,6.38972A19.42424,19.42424,0,0,0,290.82572,219.92872Z" style="fill: #020101;fill-rule: evenodd"/>
    <path d="M273.3257,233.5256a17.09284,17.09284,0,0,1-9.07822,5.2306c-4.2494.89218-8.27149.58436-11.82459-2.30631-4.93841-4.0232-5.1284-14.09235,2.33869-17.48674,2.85816-1.29863,5.88575-1.60165,8.91828-1.98888,1.85294-.238,3.70835-.48451,5.56721-.66489,3.59041-.3487,4.56681-2.121,3.75282-6.16366a4.35341,4.35341,0,0,0-3.01811-3.21277,13.96219,13.96219,0,0,0-8.88343-.37037,5.99246,5.99246,0,0,0-4.42854,5.28587c-.15871,1.01482-.53868,1.21441-1.449,1.14953a27.59285,27.59285,0,0,0-3.45447-.00247c-.85143.04815-1.03415-.23813-.956-1.06776.58794-6.23569,3.62772-9.52074,10.24818-10.73035a21.993,21.993,0,0,1,12.01826,1.0557c4.24336,1.63169,6.13349,4.33829,6.15393,8.87629.0277,6.67094.0048,13.34447.0096,20.01541,0,2.57559.37037,2.97,2.91469,2.78725.873-.06489,1.26858.05774,1.12552,1.00521a7.99978,7.99978,0,0,0-.00851,1.152c0,2.74624,0,2.74624-2.78478,3.06132C276.3859,239.6123,274.60387,238.23192,273.3257,233.5256Zm-.16587-13.75806a17.081,17.081,0,0,1-4.04857,1.36722c-1.41166.238-2.81124.55062-4.23018.731a24.92944,24.92944,0,0,0-5.73677,1.18079,5.29877,5.29877,0,0,0-3.81277,5.72348,5.1336,5.1336,0,0,0,4.28423,4.89753,12.26587,12.26587,0,0,0,11.28109-3.11193,6.7252,6.7252,0,0,0,2.0092-3.88616A43.75516,43.75516,0,0,0,273.15983,219.76754Z" style="fill: #020101;fill-rule: evenodd"/>
    <path d="M346.26575,233.50639a17.62148,17.62148,0,0,1-9.08314,5.25215,14.1161,14.1161,0,0,1-8.89784-.50975,9.89623,9.89623,0,0,1-6.40412-8.9413c-.29822-4.687,1.49342-8.18357,5.77039-10.31787,2.80768-1.40205,5.87258-1.62689,8.90509-2.01769,2.23294-.28861,4.46942-.54226,6.69509-.87175a3.12064,3.12064,0,0,0,2.87145-3.22c.23444-3.61688-1.10987-5.52154-4.55967-6.40892a15.31263,15.31263,0,0,0-5.7151-.32715c-3.78038.46419-5.5575,2.13552-6.32471,5.95926-.15267.75748-.40164.90905-1.07613.88738a35.92616,35.92616,0,0,0-3.74075.00961c-1.01359.07215-1.05816-.37751-.96914-1.18314.68535-6.24541,3.6-9.36326,10.19769-10.61374a22.15586,22.15586,0,0,1,11.34722.78752c4.86145,1.6413,6.83938,4.4081,6.85748,9.54241.024,6.47985.0048,12.95847.00714,19.436,0,2.83046.26694,3.13828,3.02057,2.95063.87778-.06009,1.10975.17558,1.02086.97887a12.5156,12.5156,0,0,0-.00725,1.2937c0,2.53237.00959,2.61167-2.46491,2.89794C349.94271,239.52808,347.28537,238.83069,346.26575,233.50639Zm-.18765-13.75091c-3.11907,1.49342-6.25255,1.80124-9.36683,2.22689a20.16738,20.16738,0,0,0-4.73746,1.0786,5.33669,5.33669,0,0,0-3.72634,5.78725,5.1659,5.1659,0,0,0,4.21208,4.81208,12.45457,12.45457,0,0,0,10.43337-2.30618,7.28991,7.28991,0,0,0,2.96392-5.04787A57.31463,57.31463,0,0,0,346.0781,219.75548Z" style="fill: #020101;fill-rule: evenodd"/>
    <path d="M391.44307,219.2264a25.21754,25.21754,0,0,1-1.18917,8.358c-2.3904,7.49713-7.58012,11.39536-15.45476,11.61181-9.34158.25488-15.80456-5.43252-16.918-14.81018a26.13078,26.13078,0,0,1,1.49822-13.41539c3.17793-7.6077,9.72759-10.80743,17.15491-10.00783,8.28109.8923,13.50318,6.06872,14.63832,13.96134A36.95478,36.95478,0,0,1,391.44307,219.2264Zm-27.46932.55924a27.005,27.005,0,0,0,.34032,4.901c.93787,5.24143,3.68657,8.34118,8.19083,9.17808,4.12318.76721,8.19207-.63005,9.8623-3.72265a21.79109,21.79109,0,0,0,1.444-18.19029c-1.32264-3.76833-4.30344-5.62251-8.25461-5.87492-4.24447-.26941-7.6125,1.12539-9.58206,5.14391A19.25445,19.25445,0,0,0,363.97375,219.78564Z" style="fill: #020101;fill-rule: evenodd"/>
    <path d="M420.39375,212.40155a2.28785,2.28785,0,0,0-.28613.00233c-1.61607.2454-2.72472-.00233-3.04214-2.00316a4.48737,4.48737,0,0,0-2.92429-3.33073,13.27439,13.27439,0,0,0-9.40659-.40165,4.22917,4.22917,0,0,0-.61207,7.99371c2.74392,1.46214,5.84623,1.73389,8.77532,2.58039,1.74349.50384,3.51825.91151,5.22567,1.51866,5.65144,2.01289,7.8723,6.90673,5.66819,12.54488-1.73019,4.42977-5.2088,6.73349-9.75641,7.5151a24.99383,24.99383,0,0,1-11.11756-.46887,11.88749,11.88749,0,0,1-8.441-10.96859c-.02044-.6697.059-.9439.80931-.91016,1.38876.05774,2.78356.0277,4.17478.0096.49657-.006.81166.09739.86571.68176.42208,4.5524,3.52909,6.20687,7.0306,6.6638a13.61868,13.61868,0,0,0,8.3881-1.20961,4.78871,4.78871,0,0,0,2.73182-4.94432c-.14185-2.10549-1.55954-3.14321-3.34623-3.66145-3.62293-1.05324-7.29029-1.95269-10.92759-2.9579a23.48663,23.48663,0,0,1-3.09866-1.10138c-5.952-2.59123-7.58135-8.90633-3.66982-14.12732a11.137,11.137,0,0,1,5.513-3.96915,19.18948,19.18948,0,0,1,13.10043.16118,10.74866,10.74866,0,0,1,7.1881,9.08425c.14785,1.00521-.02649,1.44293-1.1147,1.313A14.2777,14.2777,0,0,0,420.39375,212.40155Z" style="fill: #020101;fill-rule: evenodd"/>
    <path d="M172.22505,219.92269a18.96252,18.96252,0,0,0,1.97559,9.736,8.71019,8.71019,0,0,0,14.916.41605,6.60691,6.60691,0,0,0,1.19286-2.58876c.21043-1.78326,1.23485-2.06707,2.7343-1.87463a16.05708,16.05708,0,0,0,2.014.01318c1.83855,0,1.83855,0,1.44171,1.74361-1.527,6.71306-5.62128,10.73872-11.7416,11.54915-7.97092,1.05336-13.63185-1.38753-16.69921-7.9383-3.84417-8.20893-3.4786-16.48275,1.74349-24.01239,5.52032-7.9564,16.22308-7.16161,21.55575-3.69864,3.72634,2.41934,4.81208,6.25022,5.36517,10.3457.07461.55789-.26448.51221-.59151.51455-1.53676.00726-3.07339-.02167-4.61015.0144-.565.01207-.76352-.20193-.77792-.73581a3.07768,3.07768,0,0,0-.19356-.68779c-1.12428-4.17477-3.31151-6.25982-6.95007-6.62292-4.36229-.43526-7.58123,1.26969-9.44859,5.05008A21.26616,21.26616,0,0,0,172.22505,219.92269Z" style="fill: #020101;fill-rule: evenodd"/>
    <path d="M439.75031,197.63458c.27888,7.04981-.71907,14.86313-1.28657,22.70046-.113,1.53073-.28861,3.059-.33072,4.58971-.02165.79122-.23443,1.04253-1.0557,1.04364-2.3808.006-2.43977.05294-2.65979-2.28095a278.43062,278.43062,0,0,1-1.59193-34.59609c.02278-.784.26694-.96187.98711-.94266,1.58.04814,3.16845.06735,4.7472-.00481.921-.04087,1.24211.19726,1.21441,1.176C439.70341,191.81125,439.75031,194.30631,439.75031,197.63458Z" style="fill: #020101;fill-rule: evenodd"/>
    <path d="M200.79933,219.86851c0-5.65859.02044-11.31951-.01921-16.9781-.00727-.91865.20193-1.265,1.17476-1.20246,1.33582.08532,2.68493.05417,4.0269.00837.70344-.02524,1.00275.11192,1.00041.92112q-.0397,17.26979,0,34.53465c.00234.83209-.33675.92826-1.016.90671-1.34309-.04088-2.69109-.07942-4.02814.01194-1.00163.06982-1.16269-.32936-1.15677-1.22167C200.8173,231.19048,200.79933,225.52956,200.79933,219.86851Z" style="fill: #020101;fill-rule: evenodd"/>
    <path d="M350.62927,188.16309c-.61921,4.43457-2.47573,6.71318-5.9616,7.41895a9.31873,9.31873,0,0,1-4.634-.64088c-1.73512-.52908-3.43539-1.17-5.18245-1.64733-2.37118-.65049-3.475-.05048-4.36,2.19808-.2502.63608-3.00125,1.18313-3.34882.63484a1.348,1.348,0,0,1,.00725-.83813c.92469-5.18232,4.70742-7.57273,9.79851-6.10825,1.64376.47134,3.2129,1.20481,4.829,1.782a4.7927,4.7927,0,0,0,3.77313.02155c.53388-.25007,1.0834-.64925,1.13512-1.22635.16351-1.82537,1.414-1.66186,2.66091-1.59685C349.76838,188.18242,350.19168,188.16309,350.62927,188.16309Z" style="fill: #020101;fill-rule: evenodd"/>
    <path d="M439.55305,234.716c-.0937.92826.48587,2.40974-.22,3.11194-.70576.70219-2.186.19959-3.32345.20919-3.16354.02881-3.16958.01207-3.15874-3.184.00234-1.289-.43772-2.96037.19959-3.76119.67326-.84416,2.42044-.24539,3.69617-.26694,2.80645-.04334,2.80645-.01207,2.80645,2.82086Z" style="fill: #020101;fill-rule: evenodd"/>
    <path d="M206.96409,191.59c0,3.23333,0,3.23333-3.24294,3.23333-2.92182,0-2.94349-.00123-2.911-2.99287.01441-1.18067-.51947-2.71977.21757-3.44363.7384-.72634,2.27257-.19479,3.45817-.21166,2.47819-.03361,2.47819-.00961,2.47819,2.40961Z" style="fill: #020101;fill-rule: evenodd"/>
  </g>
</svg>
