<svg xmlns="http://www.w3.org/2000/svg" width="596.33869" height="308.48449" viewBox="0 0 596.33869 308.48449">
  <g>
    <path d="M299.55643,0c1.86875.4183,3.75948.76421,5.60653,1.26735a32.67115,32.67115,0,1,1-15.395-.55241A11.71308,11.71308,0,0,0,293.00244,0Z" style="fill: #020101;fill-rule: evenodd"/>
    <path d="M596.33869,147.57205v13.3525c-.33659,4.84519-.60922,9.69047-1.03213,14.53258-.4118,4.68593-1.07672,9.3626-1.86685,14.0346q-1.27279,7.508-3.06294,14.982-2.25351,9.43836-5.46679,18.78856a209.264,209.264,0,0,1-14.57811,32.95314,192.3291,192.3291,0,0,1-31.92431,43.27q-4.25254,4.29217-9.10577,8.37956a2.41121,2.41121,0,0,1-1.81386.61946q-29.75028-.03124-59.50028-.01853c-.15583,0-.31437-.024-.52861-.04174.18076-.48261.79569-.80817,1.23241-1.18023a169.48772,169.48772,0,0,0,28.54131-31.83087,207.68829,207.68829,0,0,0,24.7522-46.652,210.23189,210.23189,0,0,0,8.32675-27.50621,212.43941,212.43941,0,0,0,4.86867-61.08878,205.52877,205.52877,0,0,0-2.85725-23.09169,208.84325,208.84325,0,0,0-27.05848-71.691A185.15745,185.15745,0,0,0,474.19443,6.20147c-2.145-2.0449-4.45973-4.03322-6.72157-6.06956a2.75228,2.75228,0,0,1,1.35491-.09668Q497.99368.02133,527.1596.01131a3.03977,3.03977,0,0,1,2.24518.69675A158.2304,158.2304,0,0,1,552.65449,25.2692a206.76965,206.76965,0,0,1,28.06,48.857,208.60408,208.60408,0,0,1,14.36389,56.69515C595.68488,136.40127,595.952,141.98819,596.33869,147.57205Z" style="fill: #e7ae40;fill-rule: evenodd"/>
    <path d="M442.19626,85.86254c-6.49786,0-12.99306-.00966-19.49091.01092-.89945.00406-1.48322-.037-1.63777-1.20715-1.38074-10.524-6.50875-16.38072-16.86186-18.82511a49.9184,49.9184,0,0,0-25.69885.6644,16.25454,16.25454,0,0,0-7.15959,4.39938c-5.78836,5.93047-4.22845,14.96568,3.251,18.55983a64.25577,64.25577,0,0,0,10.6524,3.56544c11.67783,3.27553,23.58678,5.612,35.35071,8.53348,10.72631,2.66446,20.9947,6.49646,29.96971,13.16525,11.5643,8.59227,16.89883,20.18261,16.88791,34.53582-.01232,23.424-14.9206,41.437-36.52637,48.31227-13.48106,4.28991-27.35578,5.17718-41.37414,4.75888a109.22484,109.22484,0,0,1-29.15356-4.4117c-15.32111-4.72612-26.999-13.84742-34.11613-28.40712a53.49612,53.49612,0,0,1-5.02556-22.28795c-.0273-.916.19417-1.229,1.15115-1.22759q20.06578.04095,40.12864.00266c.901-.0014,1.20042.26935,1.29058,1.18811a41.60254,41.60254,0,0,0,1.36856,6.70827c2.00132,7.39478,7.11032,11.60685,14.15764,13.82292,7.44252,2.33912,15.097,2.65214,22.81432,2.324,5.76094-.2447,11.34423-1.20434,16.52562-3.93866,8.12468-4.28851,7.79654-13.5589,4.05624-18.31232a13.94279,13.94279,0,0,0-6.07144-4.27087c-6.64275-2.61253-13.548-4.34325-20.41219-6.2176-10.85216-2.9639-21.93531-5.03914-32.65476-8.51023a93.7065,93.7065,0,0,1-20.66922-9.16092A33.33381,33.33381,0,0,1,326.811,95.43909c-2.06292-13.276.16813-25.72894,7.93334-36.9091,8.66744-12.48306,20.64738-20.05144,35.34791-23.491,10.457-2.44719,21.0507-2.73963,31.71275-2.06025a96.41967,96.41967,0,0,1,29.83994,6.51423c17.10517,6.82194,26.66955,19.618,30.10634,37.38228.49627,2.56465.76422,5.17171,1.23725,7.74056.19683,1.07178-.12571,1.27547-1.13883,1.26861C455.29864,85.842,448.74745,85.86254,442.19626,85.86254Z" style="fill: #020101;fill-rule: evenodd"/>
    <path d="M40.60447,60.02006c3.09382-4.10946,6.03854-8.10146,9.3961-11.77484,7.21294-7.89638,16.28776-12.33412,26.72694-13.94864,13.51664-2.089,26.76657-1.06632,39.47656,4.342,15.119,6.435,23.86971,17.92007,26.7653,34.0082a91.52361,91.52361,0,0,1,1.42175,16.285q.00819,53.1571.041,106.31435c.0014,1.564-.4799,1.84565-1.91118,1.84019q-19.57568-.07791-39.1512.00266c-1.4751.00686-1.88934-.34452-1.88934-1.86329q.07371-47.17751.0273-94.3564a61.03125,61.03125,0,0,0-1.471-15.112c-2.51-9.89237-9.31687-15.95276-19.443-17.2187-6.53608-.81615-12.98886-.49221-19.16262,1.98774C52.19214,74.238,47.116,81.55471,44.36268,90.75819c-2.0233,6.75754-2.45531,13.71611-2.45265,20.724q.01638,41.85388.03837,83.70932c.00265,1.48055-.34453,1.90837-1.87029,1.90025q-19.16538-.09639-38.33227-.00826C.45805,197.08766,0,196.88257,0,195.43744q.06573-78.2183.01092-156.43938C.00827,37.739.29258,37.3617,1.60781,37.36716q18.67314.08189,37.34937-.0014c1.419-.00826,1.6897.44293,1.676,1.75269-.06565,6.38713-.02869,12.77551-.02869,19.164Z" style="fill: #020101;fill-rule: evenodd"/>
    <path d="M235.137,202.46166c-13.16806-.12305-25.51029-1.7198-37.27016-6.61-13.88018-5.77326-24.0391-15.67249-31.68951-28.39746a89.69457,89.69457,0,0,1-12.17815-35.3083c-2.19018-17.24334-.96246-34.14483,5.30989-50.48312,4.64673-12.10439,11.36885-22.90867,20.981-31.72927,8.92167-8.189,19.6015-12.96562,31.32987-15.54119a114.466,114.466,0,0,1,33.19751-1.93174c1.7923.13257,3.5709.49347,5.36321.58782,1.16193.0602,1.23181.64536,1.29465,1.57085a44.38416,44.38416,0,0,0,8.98327,24.4329A44.13141,44.13141,0,0,0,290.80149,76.6879a43.55318,43.55318,0,0,0,15.59046-.76016c.89133-.20508,1.214-.03149,1.568.76282a94.61384,94.61384,0,0,1,7.3728,25.91765,109.286,109.286,0,0,1,.60014,24.33449c-1.862,21.3556-9.4521,40.25994-24.60522,55.70691-8.97767,9.15406-20.17981,14.38191-32.56991,17.2446A112.25552,112.25552,0,0,1,235.137,202.46166Zm37.37386-84.95329c-.03682-7.80076-.65615-15.33217-2.808-22.66256-2.51145-8.56092-6.58535-16.18389-14.10725-21.36792-9.8158-6.76314-20.72941-7.433-31.92329-4.70288-11.33331,2.76567-18.3616,10.51855-22.69252,20.97832a64.81388,64.81388,0,0,0-4.38441,20.97412,86.36678,86.36678,0,0,0,2.4171,28.37563c2.12718,7.80356,5.65021,14.87958,11.90742,20.22363,9.455,8.07962,20.58047,9.388,32.29791,7.19781,11.72165-2.19,19.39516-9.5396,24.12268-20.18527C271.44189,137.103,272.45221,127.279,272.51087,117.50837Z" style="fill: #020101;fill-rule: evenodd"/>
    <path d="M237.26962,233.82583c0-6.19841.03962-12.30667-.03554-18.41213-.01233-1.24957.31987-1.60235,1.53388-1.50379a30.0568,30.0568,0,0,0,4.09042.00812c.89818-.04914,1.07177.298,1.07177,1.12105q-.03276,27.25744,0,54.51475c0,.83127-.18731,1.16753-1.07723,1.11559a34.2328,34.2328,0,0,0-3.92774.00266c-.97884.0574-1.36843-.194-1.29046-1.24942.097-1.33707.02044-2.685.02044-4.476a14.68254,14.68254,0,0,1-8.4254,6.36528,16.08827,16.08827,0,0,1-19.72876-9.81314,27.54451,27.54451,0,0,1,2.536-26.64771c5.34949-8.208,18.9795-8.61131,24.34133-1.61592C236.55735,233.47319,236.69272,233.81771,237.26962,233.82583Zm-22.549,16.49551a19.32806,19.32806,0,0,0,.69042,6.10546c1.05668,3.89359,2.659,7.4344,6.84364,8.93553,6.11106,2.19549,11.80774-.61526,13.98014-7.06384a26.51086,26.51086,0,0,0,.41143-15.47161c-1.33425-5.04194-5.15267-8.38312-9.53694-8.53347-5.36448-.18325-9.29363,2.54561-11.183,7.78158A22.8462,22.8462,0,0,0,214.72061,250.32134Z" style="fill: #020101;fill-rule: evenodd"/>
    <path d="M320.551,264.94124a14.65522,14.65522,0,0,1-8.44458,6.3734,16.082,16.082,0,0,1-19.715-9.83218,27.53986,27.53986,0,0,1,2.54967-26.64491c5.35357-8.20267,18.98918-8.59507,24.34275-1.58862.17639.22972.30756.59062.87761.56052V224.889c0-3.16479.07251-6.33239-.03416-9.49172-.04242-1.28512.37056-1.58317,1.55167-1.48475a26.59282,26.59282,0,0,0,3.76227.00546c1.00206-.0574,1.39726.15861,1.39446,1.3015q-.05943,27.09324-.00544,54.18661c.0028,1.00346-.24332,1.34252-1.26316,1.26874a32.45289,32.45289,0,0,0-3.92773-.00546c-.85719.041-1.14977-.22693-1.10734-1.09921C320.60167,268.18121,320.551,266.78409,320.551,264.94124Zm-22.93862-14.8905a21.28458,21.28458,0,0,0,2.3597,10.72085,9.24,9.24,0,0,0,5.2742,4.6263c6.08641,2.08616,11.68874-.65628,13.86253-7.042a26.4377,26.4377,0,0,0,.28432-16.10325c-1.34392-4.65081-5.18543-7.79516-9.33185-7.95923a10.7993,10.7993,0,0,0-11.06271,7.26487A22.08462,22.08462,0,0,0,297.61237,250.05074Z" style="fill: #020101;fill-rule: evenodd"/>
    <path d="M277.71549,265.50989a19.43384,19.43384,0,0,1-10.32159,5.947c-4.83141,1.01438-9.40438.6644-13.44412-2.62219-5.61479-4.57423-5.8308-16.02248,2.659-19.88177,3.24963-1.47649,6.69189-1.821,10.13976-2.26128,2.10672-.27061,4.21626-.55087,6.32971-.756,4.08216-.39646,5.1923-2.4115,4.26681-7.00785a4.94966,4.94966,0,0,0-3.43148-3.6528,15.87456,15.87456,0,0,0-10.10012-.4211c-3.0269.85577-4.56751,3.05686-5.03508,6.00985-.18045,1.15381-.61247,1.38074-1.64743,1.307a31.37285,31.37285,0,0,0-3.92761-.0028c-.968.05474-1.17579-.27074-1.08689-1.214.66846-7.08974,4.12458-10.82472,11.65179-12.2a25.00518,25.00518,0,0,1,13.66432,1.20029c4.82453,1.85517,6.97354,4.93247,6.99678,10.092.0315,7.58461.00546,15.17216.01092,22.75678,0,2.92834.4211,3.37674,3.31389,3.169.99254-.07378,1.44233.06565,1.27968,1.14289a9.09591,9.09591,0,0,0-.00968,1.30976c0,3.12238,0,3.12238-3.16619,3.48062C281.19483,272.43024,279.16873,270.86079,277.71549,265.50989Zm-.18858-15.6424a19.42048,19.42048,0,0,1-4.60307,1.55447c-1.605.2706-3.19627.626-4.80955.83113a28.34321,28.34321,0,0,0-6.5225,1.34252,6.02449,6.02449,0,0,0-4.335,6.50737,5.83672,5.83672,0,0,0,4.871,5.56832,13.94583,13.94583,0,0,0,12.82618-3.53816,7.64623,7.64623,0,0,0,2.28439-4.41841C277.71282,255.18969,277.45705,252.64548,277.52691,249.86749Z" style="fill: #020101;fill-rule: evenodd"/>
    <path d="M360.64561,265.48805a20.03491,20.03491,0,0,1-10.32719,5.97148,16.04933,16.04933,0,0,1-10.11651-.57956c-4.383-1.91131-6.97229-5.25515-7.28125-10.16592-.33906-5.32893,1.698-9.30441,6.56072-11.731,3.19223-1.59409,6.6769-1.84971,10.12476-2.294,2.53877-.32815,5.08156-.61653,7.61207-.99115a3.54805,3.54805,0,0,0,3.26473-3.66106c.26654-4.11226-1.26189-6.27779-5.18418-7.28671a17.41,17.41,0,0,0-6.49785-.372c-4.29815.52777-6.31867,2.428-7.191,6.77546-.17359.86123-.45665,1.03356-1.22353,1.00892a40.85019,40.85019,0,0,0-4.25309.01092c-1.15241.082-1.20309-.42921-1.10187-1.34518.77921-7.1008,4.09308-10.64567,11.59439-12.06743a25.19026,25.19026,0,0,1,12.90136.89539c5.5273,1.86609,7.77612,5.01184,7.7967,10.84936.0273,7.36735.00546,14.73329.00812,22.098,0,3.21813.30351,3.56811,3.43428,3.35476.998-.06832,1.26175.19963,1.16067,1.11293a14.23443,14.23443,0,0,0-.00824,1.4709c0,2.87921.0109,2.96936-2.80251,3.29484C364.82618,272.33448,361.80488,271.54157,360.64561,265.48805Zm-.21335-15.63428c-3.54627,1.698-7.10892,2.04794-10.64973,2.53189a22.92955,22.92955,0,0,0-5.38632,1.22633,6.06762,6.06762,0,0,0-4.23671,6.57989,5.87345,5.87345,0,0,0,4.789,5.47116c4.3406,1.04727,8.29423-.10122,11.86236-2.62205a8.28834,8.28834,0,0,0,3.36986-5.73924A65.16225,65.16225,0,0,0,360.43226,249.85377Z" style="fill: #020101;fill-rule: evenodd"/>
    <path d="M412.01054,249.25222a28.67152,28.67152,0,0,1-1.352,9.50278c-2.7178,8.524-8.61831,12.9561-17.57149,13.20221-10.621.28978-17.9692-6.17658-19.23514-16.83863a29.70968,29.70968,0,0,1,1.70342-15.2528c3.61318-8.64967,11.05991-12.28764,19.50449-11.37853,9.41528,1.01452,15.35261,6.89991,16.64322,15.87352A42.017,42.017,0,0,1,412.01054,249.25222Zm-31.2316.63585a30.70374,30.70374,0,0,0,.38694,5.57223c1.06631,5.95931,4.19149,9.4836,9.31267,10.43512,4.6879.87229,9.31407-.71633,11.21306-4.23251a24.77566,24.77566,0,0,0,1.64182-20.68168c-1.50379-4.28445-4.89285-6.39258-9.38519-6.67956-4.82579-.30631-8.65513,1.27952-10.89443,5.84843A21.89156,21.89156,0,0,0,380.77894,249.88807Z" style="fill: #020101;fill-rule: evenodd"/>
    <path d="M444.92638,241.49262a2.60031,2.60031,0,0,0-.32532.00266c-1.83742.279-3.0979-.00266-3.4588-2.27752a5.102,5.102,0,0,0-3.3248-3.78692,15.09242,15.09242,0,0,0-10.695-.45665,4.803,4.803,0,0,0-3.62,4.383c-.16,2.20921,1.05806,3.7158,2.92415,4.70554,3.11973,1.6624,6.647,1.97136,9.97721,2.93381,1.98228.57284,4.00012,1.03636,5.94139,1.72666,6.42548,2.28858,8.95051,7.85269,6.44452,14.263-1.96717,5.03649-5.92221,7.65573-11.09267,8.5444a28.41711,28.41711,0,0,1-12.64025-.53309,13.51565,13.51565,0,0,1-9.59716-12.47088c-.02323-.76142.06706-1.07318.92017-1.03482,1.579.06565,3.16479.0315,4.74656.01092.56459-.00686.92283.11073.98428.77513.47989,5.17592,4.01245,7.057,7.99353,7.5765a15.484,15.484,0,0,0,9.537-1.37528,5.44459,5.44459,0,0,0,3.106-5.62151c-.16127-2.39386-1.77313-3.57371-3.80453-4.16294-4.11914-1.19749-8.28879-2.22013-12.42427-3.363a26.70347,26.70347,0,0,1-3.52305-1.25222c-6.7672-2.94613-8.61971-10.12617-4.17245-16.06224a12.66234,12.66234,0,0,1,6.26813-4.51277,21.81772,21.81772,0,0,1,14.8947.18325,12.22083,12.22083,0,0,1,8.1726,10.32845c.16811,1.14289-.03012,1.64056-1.26737,1.49287A16.23421,16.23421,0,0,0,444.92638,241.49262Z" style="fill: #020101;fill-rule: evenodd"/>
    <path d="M162.76784,250.04388c-.06846,3.85243.34718,7.61611,2.24617,11.06942a9.90316,9.90316,0,0,0,16.95888.473,7.51193,7.51193,0,0,0,1.35624-2.94333c.23924-2.0275,1.404-2.35018,3.10879-2.13137a18.25736,18.25736,0,0,0,2.28985.015c2.09035,0,2.09035,0,1.63916,1.98242-1.73618,7.63249-6.39118,12.20952-13.34975,13.13094-9.06265,1.19763-15.49891-1.57756-18.98638-9.02554-4.37068-9.33325-3.955-18.74028,1.98228-27.30119,6.27639-9.04613,18.445-8.14248,24.50808-4.20522,4.23671,2.7507,5.47115,7.10627,6.1,11.76267.08483.6343-.30071.58237-.67252.585-1.74724.00826-3.49434-.02464-5.24157.01638-.64243.01371-.86809-.22959-.88447-.8366a3.49876,3.49876,0,0,0-.22007-.782c-1.27826-4.74656-3.76506-7.11718-7.902-7.53-4.95976-.49487-8.61958,1.4436-10.74269,5.74177A24.17857,24.17857,0,0,0,162.76784,250.04388Z" style="fill: #020101;fill-rule: evenodd"/>
    <path d="M466.93406,224.70313c.31708,8.01537-.81755,16.89883-1.46278,25.80958-.12851,1.74038-.32814,3.47795-.376,5.21833-.02462.89959-.26655,1.18531-1.20029,1.18657-2.70688.00686-2.77394.0602-3.02408-2.59334-1.23993-13.08055-2.20237-26.17594-1.81-39.33447.0259-.89132.3035-1.09361,1.12232-1.07177,1.79639.05473,3.6024.07657,5.39738-.00546,1.04714-.04648,1.41223.22426,1.38074,1.33706C466.88074,218.08222,466.93406,220.919,466.93406,224.70313Z" style="fill: #020101;fill-rule: evenodd"/>
    <path d="M195.25572,249.98228c0-6.4336.02324-12.86986-.02184-19.30346-.00826-1.04448.22959-1.43828,1.33567-1.36716,1.51877.097,3.05266.0616,4.57843.00952.79978-.0287,1.14009.12725,1.13743,1.04728q-.04515,19.6351,0,39.2646c.00266.94607-.38288,1.0554-1.1552,1.0309-1.527-.04648-3.05967-.09029-4.57984.01358-1.13882.07938-1.32195-.37448-1.31521-1.389C195.27616,262.85494,195.25572,256.41868,195.25572,249.98228Z" style="fill: #020101;fill-rule: evenodd"/>
    <path d="M365.60677,213.93441c-.704,5.04194-2.81481,7.63263-6.77812,8.43506a10.59478,10.59478,0,0,1-5.26872-.72866c-1.97277-.60154-3.90591-1.3302-5.89226-1.87295-2.69594-.73957-3.951-.05739-4.9571,2.49914-.28447.72319-3.4123,1.34518-3.80748.72179a1.53254,1.53254,0,0,1,.00824-.95292c1.05134-5.89211,5.35216-8.60991,11.14054-6.94485,1.86889.53589,3.65295,1.36982,5.49034,2.0261a5.44917,5.44917,0,0,0,4.28991.0245c.607-.28433,1.23178-.73818,1.29058-1.39432.18591-2.07538,1.60766-1.88947,3.02536-1.81555C364.628,213.95639,365.10924,213.93441,365.60677,213.93441Z" style="fill: #020101;fill-rule: evenodd"/>
    <path d="M466.70979,266.86333c-.10653,1.05539.55241,2.73977-.25016,3.53815-.80242.79837-2.48542.22692-3.77864.23784-3.59683.03276-3.60369.01372-3.59137-3.62.00266-1.46558-.49767-3.36582.22693-4.27633.76547-.95978,2.752-.279,4.20241-.3035,3.19083-.04928,3.19083-.01372,3.19083,3.20721Z" style="fill: #020101;fill-rule: evenodd"/>
    <path d="M202.26483,217.83066c0,3.67618,0,3.67618-3.6871,3.67618-3.322,0-3.34665-.0014-3.30969-3.40278.01638-1.34238-.59062-3.09228.24737-3.91529.83953-.82581,2.58383-.22147,3.93181-.24064,2.81761-.03822,2.81761-.01092,2.81761,2.73963Z" style="fill: #020101;fill-rule: evenodd"/>
  </g>
</svg>
