<svg xmlns="http://www.w3.org/2000/svg" width="93.10339" height="93.10362" viewBox="0 0 93.10339 93.10362">
  <g>
    <path d="M92.56888,46.533A45.68852,45.68852,0,1,1,46.883.84274,45.68387,45.68387,0,0,1,92.56888,46.533" style="fill: #e31f26;fill-rule: evenodd"/>
    <path d="M63.07037,37.69113a53.23381,53.23381,0,0,1-4.7189,5.66138s-1.66586,2.47673.99559,2.996c0,0,2.39223.96512,4.84265-1.61968a6.7289,6.7289,0,0,0,2.39939-5.83016s-1.24587-2.82261-3.51873-1.20754" style="fill: #fff;fill-rule: evenodd"/>
    <path d="M62.63583,35.291s.46478-5.48059-5.5771-3.69213a3.07009,3.07009,0,0,0-1.03092,1.63053s-3.73808,7.04671-4.03038,7.11875c-.29623.07342-2.446,2.41186.26159,3.262,0,0,3.05027,1.70395,5.96893-1.55365A45.73006,45.73006,0,0,0,62.63583,35.291" style="fill: #fff;fill-rule: evenodd"/>
    <path d="M52.47837,37.76039a18.96715,18.96715,0,0,0,2.09623-5.04952,5.15668,5.15668,0,0,0,0-2.06184,27.38628,27.38628,0,0,0-.954-4.03408,1.94749,1.94749,0,0,0-2.05352-1.28858,2.58924,2.58924,0,0,0-3.09275,2.48874s-.99236,4.3878-1.28443,5.40625c0,0-1.84965,3.1851-2.23061,3.94611-.37681.75824-1.67279,3.35758,1.97709,3.77733a6.30792,6.30792,0,0,0,5.542-3.18441" style="fill: #fff;fill-rule: evenodd"/>
    <path d="M48.38218,24.20679c-.30385-1.869-2.88033-1.96163-3.43077-1.96879a17.09661,17.09661,0,0,0-4.55289.85383,6.7481,6.7481,0,0,0-3.681,3.43054s-.90739,2.15418,1.9734,1.11519l1.19947-1.19947s1.8538,3.76417,6.99961,1.196c0,0,1.80023-1.55018,1.49223-3.4273" style="fill: #fff;fill-rule: evenodd"/>
    <polygon points="10.45 60.375 12.953 60.206 12.423 58.828 10.45 60.375" style="fill: #fff;fill-rule: evenodd"/>
    <path d="M25.17583,18.257A1.42774,1.42774,0,0,0,26.868,17.08827a2.49536,2.49536,0,0,0-.59569-1.48461,2.0338,2.0338,0,0,0-1.10042-.90808,1.29708,1.29708,0,0,0-1.09626.23527,1.23713,1.23713,0,0,0-.565.934,2.23011,2.23011,0,0,0,.52666,1.41165,2.22874,2.22874,0,0,0,1.13851.98058" style="fill: #fff;fill-rule: evenodd"/>
    <path d="M8.83794,48.82156a.57214.57214,0,0,0-.23435-.32325.60024.60024,0,0,0-.39667-.10367.58453.58453,0,0,0-.48.242,1.21289,1.21289,0,0,0-.1196.773l.06118.90393,1.35809-.09213-.06534-.86952a3.31623,3.31623,0,0,0-.1233-.53035" style="fill: #fff;fill-rule: evenodd"/>
    <path d="M18.41473,25.46444a2.05052,2.05052,0,0,0,.43776-.81943.99475.99475,0,0,0-.13807-.63794,3.10877,3.10877,0,0,0-.83836-.82265A2.20609,2.20609,0,0,0,16.5069,22.58a1.47817,1.47817,0,0,0-1.00391.68112l-.3117.41491,2.923,2.19274Z" style="fill: #fff;fill-rule: evenodd"/>
    <path d="M15.4649,67.92779a.69331.69331,0,0,0-.5696.12284.74851.74851,0,0,0-.31193.48463,1.1152,1.1152,0,0,0,.28884.76147l.34194.47748,1.20847-.87669-.29277-.40821a1.41555,1.41555,0,0,0-.665-.56152" style="fill: #fff;fill-rule: evenodd"/>
    <polygon points="77.481 69.286 75.973 67.282 75.104 68.471 77.481 69.286" style="fill: #fff;fill-rule: evenodd"/>
    <polygon points="77.666 24.322 75.297 25.138 76.158 26.33 77.666 24.322" style="fill: #fff;fill-rule: evenodd"/>
    <path d="M53.00525,12.34952a1.30635,1.30635,0,0,0,1.10042-.227,2.53812,2.53812,0,0,0,.65341-1.46106,2.0653,2.0653,0,0,0-.11521-1.41535,1.30174,1.30174,0,0,0-.93094-.63032,1.27113,1.27113,0,0,0-1.069.23781,2.29191,2.29191,0,0,0-.64648,1.3694,2.2832,2.2832,0,0,0,.08473,1.50031,1.32536,1.32536,0,0,0,.92309.62617" style="fill: #fff;fill-rule: evenodd"/>
    <path d="M46.55562,0A46.55181,46.55181,0,1,0,93.10339,46.55608,46.54726,46.54726,0,0,0,46.55562,0m-.12745,90.758A43.97891,43.97891,0,1,1,90.40338,46.783,44.03222,44.03222,0,0,1,46.42817,90.758" style="fill: #fff;fill-rule: evenodd"/>
    <path d="M46.55585,16.53068A30.01986,30.01986,0,1,0,76.5771,46.55631,29.83956,29.83956,0,0,0,46.55585,16.53068m-2.90019,57.94c.09259-1.20846.14615-2.096.14615-2.096.44608-2.11978.53012-.28515.53012-.28515.01986.85037.03533,1.6497.04687,2.41856-.2422-.0187-.48855-.01524-.72314-.03741m5.065.03741c.362-2.8263.61139-6.64889.61139-6.64889.45023-2.11932.53081-.28076.53081-.28076.058,2.81868.0889,5.26887.10436,6.81859-.41536.04572-.83142.07666-1.24656.11106m7.623-1.67625-.52712-5.17259a15.20893,15.20893,0,0,0-1.2655-4.062c1.95378,0,4.3497-2.83069,4.3497-2.83069a12.31448,12.31448,0,0,0,1.61114-3.52243L60.813,56.2363c1.19161-.04179,4.32246-5.42656,4.32246-5.42656.21519-2.77274-2.01519-1.31145-2.01519-1.31145a8.22509,8.22509,0,0,1-7.24181-.30754c-.61994-.55413-2.30034-.3498-2.30034-.3498a6.52551,6.52551,0,0,1-5.15343-.55782c-1.31906,2.26547.71114,6.33765.71114,6.33765a2.005,2.005,0,0,0-1.82241.80418l.00739-.1a3.1946,3.1946,0,0,1-.9,2.01519l-.80718.496A10.99718,10.99718,0,0,0,44.79787,44.352C42.2671,41.79055,40.175,42.0369,40.175,42.0369c-1.52317,1.15837-1.915.19626-1.915.19626a28.3935,28.3935,0,0,0-1.71088-3.21881,4.97746,4.97746,0,0,0,.39852-2.91566c-.92263-1.5578,2.11239-.70767,2.11239-.70767,5.62213-.14616,7.44915-3.60809,7.44915-3.60809,1.48877-2.77274-1.51116-2.42179-1.51116-2.42179a26.37618,26.37618,0,0,1-4.63439,0,15.29753,15.29753,0,0,0-5.83455-.10852l-5.02274,5.13149c-.1233,1.13043-1.27289,14.01792-1.27289,14.01792L33.89832,61.2789c.30016.87276.77717.94549.77717.94549l1.58043-.0344c.96165.17617.89631.53035.89631.53035l-.58484.49248c-1.49985.24613-1.28812,1.37725-1.28812,1.37725-.21173,1.43451-.40406,5.12988-.40406,5.12988l-.01547,2.31973a28.05918,28.05918,0,1,1,21.48393.79218" style="fill: #fff;fill-rule: evenodd"/>
    <path d="M46.42124,4.26566a42.51173,42.51173,0,1,0,0,85.02345h.0067a42.51173,42.51173,0,0,0-.0067-85.02345M86.34991,42.39825l-6.61449.92332-.28953-2.04613,6.61148-.927ZM84.11121,32.888,79.35792,34.5298l1.04638,3.03872L78.85,38.11l-1.72219-4.9955,6.31479-2.17705ZM78.42374,22.41071l1.31837,1.82309-3.92233,5.95761-1.26919-1.75013.69959-.91478-1.38486-1.90044-1.08379.38881L71.543,24.30307Zm-6.2349-6.55353,1.53864,1.38856L69.2584,22.20291,67.72,20.82266Zm-11.3036-3.21859a3.48746,3.48746,0,0,1,1.9734-1.8351,3.35551,3.35551,0,0,1,2.6222.38489A3.41379,3.41379,0,0,1,66.99316,12.573a2.98125,2.98125,0,0,1,.21126,1.88867L65.40488,13.957a1.40675,1.40675,0,0,0,.03047-.4881,1.07423,1.07423,0,0,0-.20018-.51511,1.11733,1.11733,0,0,0-.43776-.37635,1.22272,1.22272,0,0,0-1.21632-.00808,2.39876,2.39876,0,0,0-.86075,1.02676,2.47742,2.47742,0,0,0-.4156,1.50747,1.3265,1.3265,0,0,0,1.58459.9344,2.03275,2.03275,0,0,0,.84181-.646L66.074,16.7304a3.4835,3.4835,0,0,1-1.10341.84966,2.52074,2.52074,0,0,1-1.21956.21935,3.51258,3.51258,0,0,1-1.42319-.46478,4.33931,4.33931,0,0,1-1.42712-1.11219,2.89649,2.89649,0,0,1-.53428-1.54926,3.86635,3.86635,0,0,1,.51881-2.03459M49.97092,9.81945a3.415,3.415,0,0,1,1.38025-2.32689A3.37841,3.37841,0,0,1,54.01239,7.085,3.49533,3.49533,0,0,1,56.36652,8.454a3.38755,3.38755,0,0,1,.40752,2.63075,4.10889,4.10889,0,0,1-.75362,1.8157,2.79133,2.79133,0,0,1-1.33846.92263,3.79889,3.79889,0,0,1-1.9.05357,4.35994,4.35994,0,0,1-1.76906-.71114,2.76112,2.76112,0,0,1-.954-1.35047,3.67312,3.67312,0,0,1-.088-1.99556m-6.3268,1.0577a2.71716,2.71716,0,0,0-1.08887-.30016,4.60365,4.60365,0,0,1-2.00342-.63055,1.67127,1.67127,0,0,1-.69243-1.239,1.72714,1.72714,0,0,1,.212-.99167,1.94764,1.94764,0,0,1,.82635-.79656,4.35346,4.35346,0,0,1,1.6153-.40775,3.34755,3.34755,0,0,1,1.98517.3117,2.02609,2.02609,0,0,1,.93048,1.43058l-1.92353.28446a1.05894,1.05894,0,0,0-.384-.62294,1.044,1.044,0,0,0-.69567-.14638.83715.83715,0,0,0-.53127.20018.46686.46686,0,0,0-.15031.38489.39525.39525,0,0,0,.17732.2773,1.75435,1.75435,0,0,0,.7079.18425,8.23713,8.23713,0,0,1,1.984.41906,1.99424,1.99424,0,0,1,.912.66565,1.84474,1.84474,0,0,1,.35373.96142,2.04052,2.04052,0,0,1-.25052,1.20754,2.21,2.21,0,0,1-.91478.90739,4.09912,4.09912,0,0,1-1.5772.41953,3.29687,3.29687,0,0,1-2.40724-.45785,2.53975,2.53975,0,0,1-.88476-1.59221l1.93854-.29277a1.45851,1.45851,0,0,0,.3267.70006,1.08341,1.08341,0,0,0,.94249.33155,1.02873,1.02873,0,0,0,.65711-.26991.59437.59437,0,0,0-.06511-.93786M21.62961,15.84909a3.38707,3.38707,0,0,1,1.55388-2.19574,3.44639,3.44639,0,0,1,2.61527-.746,3.40586,3.40586,0,0,1,2.17728,1.531,4.15878,4.15878,0,0,1,.77971,1.80762,2.76154,2.76154,0,0,1-.26437,1.6116,3.73819,3.73819,0,0,1-1.27358,1.40727,4.3274,4.3274,0,0,1-1.74182.76908,2.79711,2.79711,0,0,1-1.63815-.24566,3.71545,3.71545,0,0,1-1.49316-1.335,3.41163,3.41163,0,0,1-.71506-2.60419m-7.04186,6.10423A3.70387,3.70387,0,0,1,15.66438,20.942a2.407,2.407,0,0,1,1.11958-.30778,2.87087,2.87087,0,0,1,1.17268.21542,4.82551,4.82551,0,0,1,1.13413.65365,4.38158,4.38158,0,0,1,1.17753,1.196,2.6815,2.6815,0,0,1,.38466,1.13481,2.21382,2.21382,0,0,1-.13507,1.05747,4.7329,4.7329,0,0,1-.58831,1.09257L18.07971,28.43l-5.33445-4.023Zm-4.33446,6.992,6.06151,2.827-.87692,1.873L9.38422,30.818Zm-2.5848,6.415,1.61137.34587-.43453,2.05791,4.92323,1.05031L13.33334,40.837,8.41472,39.78367,7.9765,41.845l-1.61114-.35026ZM6.22636,49.05175a4.98765,4.98765,0,0,1,.06558-1.47653,1.57442,1.57442,0,0,1,.54628-.85336,1.86976,1.86976,0,0,1,1.057-.38512,1.8637,1.8637,0,0,1,.97712.17316,1.7829,1.7829,0,0,1,.69682.60378,2.54382,2.54382,0,0,1,.31447.70351,1.92061,1.92061,0,0,1,.20827-.55367,2.20025,2.20025,0,0,1,.3267-.35741,2.38507,2.38507,0,0,1,.39274-.3154l1.85727-1.123.16531,2.323L10.876,49.037a1.688,1.688,0,0,0-.48786.39943.89607.89607,0,0,0-.11937.523l.0157.17756,2.7-.19233.15378,2.07245-6.66552.46224ZM8.42257,59.92036l5.334-4.73391L14.53,57.2058l-.91178.70352.85013,2.18836,1.13851-.09236.76124,1.97271-7.13837.04226Zm6.91949,12.33035-2.01981-2.7762a2.34474,2.34474,0,0,1-.5539-1.66909,1.96494,1.96494,0,0,1,.90024-1.34654,2.029,2.029,0,0,1,1.63007-.43453,2.6419,2.6419,0,0,1,1.55457,1.16529l.66126.91571,2.00781-1.45414,1.21886,1.67671Zm31.21379,5.79645A31.49293,31.49293,0,1,1,78.0467,46.55608,31.53541,31.53541,0,0,1,46.55585,78.04716m31.64809-6.811-6.87678-1.9,1.26966-1.74667,1.09256.38466,1.37609-1.90044-.70374-.91478,1.23848-1.6998,3.9348,5.95715Zm4.55358-7.2305-1.53864-.58876.75385-1.96094-4.69212-1.80462.73123-1.92284,4.69973,1.79978.75362-1.96509,1.54233.59638Zm3.0999-11.66909a2.01638,2.01638,0,0,1-1.5735.66149l.05426-1.94592a1.04869,1.04869,0,0,0,.68481-.26945,1.00981,1.00981,0,0,0,.26529-.66149.80826.80826,0,0,0-.10759-.55367.4691.4691,0,0,0-.35742-.21542.39991.39991,0,0,0-.30038.12283,1.96041,1.96041,0,0,0-.30385.67327,8.32216,8.32216,0,0,1-.75385,1.87689,1.97375,1.97375,0,0,1-.80742.7804,1.89427,1.89427,0,0,1-1.00806.18471,2.117,2.117,0,0,1-1.14543-.46131,2.20068,2.20068,0,0,1-.73861-1.06139,3.94122,3.94122,0,0,1-.142-1.62661,3.33793,3.33793,0,0,1,.861-2.29619,2.55613,2.55613,0,0,1,1.727-.58484L82.166,48.92107a1.4734,1.4734,0,0,0-.74692.19625,1.06552,1.06552,0,0,0-.48441.873.99954.99954,0,0,0,.14223.69244.62048.62048,0,0,0,.45831.28468.62823.62823,0,0,0,.48441-.19163,2.68526,2.68526,0,0,0,.477-1.01222,4.49038,4.49038,0,0,1,.97273-1.86119,1.662,1.662,0,0,1,1.33846-.47286,1.84846,1.84846,0,0,1,.94249.38374,2.03576,2.03576,0,0,1,.63817.95818,4.359,4.359,0,0,1,.12307,1.66148,3.31944,3.31944,0,0,1-.65411,1.90367" style="fill: #fff;fill-rule: evenodd"/>
  </g>
</svg>
