<svg xmlns="http://www.w3.org/2000/svg" width="75.41375" height="110.9964" viewBox="0 0 75.41375 110.9964">
  <g>
    <path d="M26.35883,77.60659H11.92636v32.67757H20.512v-9.65781H25.9473c8.37121,0,12.26991-2.98831,12.26991-9.4048v-4.161C38.21721,80.5221,34.55969,77.60659,26.35883,77.60659ZM29.63189,87.7308v2.77134c0,2.08222-.55158,3.07384-3.68459,3.07384H20.512V84.79969H25.9473C29.06238,84.79969,29.63189,85.78683,29.63189,87.7308Z" style="fill: #e31f26"/>
    <path d="M53.42379,90.76071c-5.223-1.15462-5.223-1.15462-5.223-3.89457,0-1.99741.446-2.49986,3.7886-2.49986a56.03622,56.03622,0,0,1,9.45052.9034l.44471.071.87685-6.83913-.39055-.07818a54.14239,54.14239,0,0,0-10.485-1.06066c-9.17419,0-12.27009,2.3494-12.27009,9.31083,0,7.23112,1.47505,8.8005,9.864,10.49773,5.42163,1.10656,5.42163,1.32084,5.42163,3.94227,0,2.24845-.33353,2.97522-4.30162,2.97522a34.37719,34.37719,0,0,1-9.75751-1.51236l-.44542-.12875-1.46627,6.32091.32582.13808a30.42006,30.42006,0,0,0,11.23956,2.08975c10.866,0,12.9913-3.60641,12.9913-9.83569C63.48739,94.43867,62.62039,92.80313,53.42379,90.76071Z" style="fill: #e31f26"/>
    <path d="M74.98079,37.69172A37.0077,37.0077,0,1,1,37.97525.68262a37.00393,37.00393,0,0,1,37.00554,37.0091" style="fill: #e31f26;fill-rule: evenodd"/>
    <path d="M51.087,30.52981a43.11822,43.11822,0,0,1-3.82231,4.58572s-1.34934,2.00616.80643,2.42677c0,0,1.93771.78174,3.92255-1.31195a5.4504,5.4504,0,0,0,1.9435-4.72243S52.928,29.22161,51.087,30.52981" style="fill: #fff;fill-rule: evenodd"/>
    <path d="M50.735,28.58574s.37647-4.43928-4.51746-2.99062a2.48676,2.48676,0,0,0-.835,1.32073s-3.02785,5.70783-3.26462,5.76618c-.23994.05947-1.98128,1.95361.2119,2.64221,0,0,2.47071,1.38021,4.83483-1.25845a37.04175,37.04175,0,0,0,3.57039-5.48" style="fill: #fff;fill-rule: evenodd"/>
    <path d="M42.50748,30.58592a15.36343,15.36343,0,0,0,1.69795-4.09012,4.177,4.177,0,0,0,0-1.67008,22.18323,22.18323,0,0,0-.77277-3.26761,1.57746,1.57746,0,0,0-1.66335-1.04375,2.09729,2.09729,0,0,0-2.50513,2.01588s-.80381,3.55412-1.04039,4.37906c0,0-1.49821,2.57994-1.80679,3.19635-.30522.61417-1.355,2.71964,1.60145,3.05964a5.10942,5.10942,0,0,0,4.489-2.57937" style="fill: #fff;fill-rule: evenodd"/>
    <path d="M39.18956,19.6075c-.24611-1.51392-2.33307-1.58892-2.77892-1.59472a13.8483,13.8483,0,0,0-3.68784.6916,5.466,5.466,0,0,0-2.98165,2.77874s-.735,1.74489,1.59846.9033l.97156-.97156s1.50158,3.049,5.66969.96876a3.47153,3.47153,0,0,0,1.2087-2.77612" style="fill: #fff;fill-rule: evenodd"/>
    <polygon points="8.464 48.904 10.492 48.766 10.063 47.651 8.464 48.904" style="fill: #fff;fill-rule: evenodd"/>
    <path d="M20.39242,14.78819a1.15646,1.15646,0,0,0,1.37067-.94669,2.02122,2.02122,0,0,0-.48251-1.20253,1.64741,1.64741,0,0,0-.89134-.73555,1.05062,1.05062,0,0,0-.888.19057,1.002,1.002,0,0,0-.45763.75649,1.8063,1.8063,0,0,0,.42659,1.14344,1.80522,1.80522,0,0,0,.92219.79427" style="fill: #fff;fill-rule: evenodd"/>
    <path d="M7.15873,39.54546a.46346.46346,0,0,0-.18982-.26183.48621.48621,0,0,0-.3213-.084.4735.4735,0,0,0-.38882.196.98248.98248,0,0,0-.09687.62614l.04956.73218,1.10005-.07462L7.2586,39.975a2.68438,2.68438,0,0,0-.09987-.42958" style="fill: #fff;fill-rule: evenodd"/>
    <path d="M14.91593,20.62619a1.66092,1.66092,0,0,0,.35459-.66373.80574.80574,0,0,0-.11184-.51673,2.518,2.518,0,0,0-.67907-.66635,1.78693,1.78693,0,0,0-1.109-.48962,1.19737,1.19737,0,0,0-.81317.55171l-.25247.33607,2.36767,1.77613Z" style="fill: #fff;fill-rule: evenodd"/>
    <path d="M12.52657,55.02151a.56159.56159,0,0,0-.46138.0995.6063.6063,0,0,0-.25266.39255.90332.90332,0,0,0,.234.61679l.277.38676.97886-.71012-.23714-.33065a1.14658,1.14658,0,0,0-.53861-.45483" style="fill: #fff;fill-rule: evenodd"/>
    <polygon points="62.76 56.122 61.538 54.498 60.834 55.461 62.76 56.122" style="fill: #fff;fill-rule: evenodd"/>
    <polygon points="62.909 19.701 60.991 20.362 61.688 21.328 62.909 19.701" style="fill: #fff;fill-rule: evenodd"/>
    <path d="M42.93425,10.00311a1.0581,1.0581,0,0,0,.89134-.18384,2.05587,2.05587,0,0,0,.52926-1.18346,1.67281,1.67281,0,0,0-.09332-1.14643,1.0544,1.0544,0,0,0-.75406-.51056,1.02958,1.02958,0,0,0-.8659.19263,1.85642,1.85642,0,0,0-.52366,1.10921,1.84944,1.84944,0,0,0,.06864,1.21526,1.07357,1.07357,0,0,0,.7477.50719" style="fill: #fff;fill-rule: evenodd"/>
    <path d="M37.71005,0A37.707,37.707,0,1,0,75.41374,37.71043,37.70327,37.70327,0,0,0,37.71005,0m-.10323,73.514A35.62292,35.62292,0,1,1,73.22674,37.89427,35.66609,35.66609,0,0,1,37.60682,73.514" style="fill: #fff;fill-rule: evenodd"/>
    <path d="M37.71024,13.38985A24.31609,24.31609,0,1,0,62.02745,37.71061,24.17007,24.17007,0,0,0,37.71024,13.38985M35.36109,60.32127c.075-.97886.11838-1.69776.11838-1.69776.36132-1.717.4294-.231.4294-.231.01608.68879.02861,1.33625.038,1.959-.19618-.01515-.39573-.01235-.58574-.0303m4.10264.0303c.29325-2.28931.49523-5.3856.49523-5.3856.36469-1.71665.43-.22742.43-.22742.04694,2.28314.072,4.26779.08453,5.52306-.33645.037-.67346.06209-1.00972.09m6.17464-1.35776-.427-4.1898a12.31928,12.31928,0,0,0-1.02505-3.29024c1.58256,0,3.52326-2.29285,3.52326-2.29285a9.97486,9.97486,0,0,0,1.305-2.85317l.24388-.81634c.9652-.03386,3.50119-4.39552,3.50119-4.39552.1743-2.24592-1.63231-1.06227-1.63231-1.06227a6.66232,6.66232,0,0,1-5.86586-.24911c-.50215-.44885-1.86328-.28334-1.86328-.28334a5.28566,5.28566,0,0,1-4.17428-.45184c-1.06844,1.835.576,5.1335.576,5.1335a1.62407,1.62407,0,0,0-1.47614.65139l.006-.081a2.58767,2.58767,0,0,1-.729,1.63231l-.65382.40171a8.90769,8.90769,0,0,0-.66074-10.92212c-2.04992-2.0748-3.7445-1.87525-3.7445-1.87525-1.23377.93828-1.55114.159-1.55114.159a22.99962,22.99962,0,0,0-1.38582-2.60724,4.03173,4.03173,0,0,0,.3228-2.36168c-.74733-1.26182,1.711-.57322,1.711-.57322,4.55393-.11838,6.03381-2.92255,6.03381-2.92255,1.2059-2.24592-1.224-1.96165-1.224-1.96165a21.36378,21.36378,0,0,1-3.75386,0,12.391,12.391,0,0,0-4.726-.0879l-4.06842,4.15651c-.09987.91565-1.031,11.35452-1.031,11.35452l4.58852,10.43026c.24313.70694.62951.76585.62951.76585l1.28015-.02787c.77893.1427.726.42958.726.42958l-.47372.39892c-1.21488.19936-1.04338,1.11557-1.04338,1.11557-.1715,1.16195-.32729,4.1552-.32729,4.1552l-.01253,1.879a22.72794,22.72794,0,1,1,17.402.64167" style="fill: #fff;fill-rule: evenodd"/>
    <path d="M37.60121,3.45519a34.4345,34.4345,0,1,0,0,68.869h.00542a34.4345,34.4345,0,0,0-.00542-68.869M69.94342,34.34258l-5.35773.74789-.23452-1.65737,5.3553-.75088Zm-1.81334-7.70333-3.85017,1.32989.84757,2.46136-1.259.43857-1.395-4.04636,5.115-1.76341Zm-4.60685-8.48658,1.06788,1.47671L61.414,24.455l-1.028-1.4176.56667-.741-1.12174-1.53936-.87787.31494-1.00318-1.38656ZM58.473,12.84431l1.24629,1.12474-3.61994,4.01531-1.24612-1.118ZM49.317,10.23726A2.82481,2.82481,0,0,1,50.9155,8.75083a2.718,2.718,0,0,1,2.124.31176,2.76523,2.76523,0,0,1,1.225,1.12156,2.41472,2.41472,0,0,1,.17112,1.52982L52.978,11.30514a1.1393,1.1393,0,0,0,.02469-.39536.87026.87026,0,0,0-.16215-.41724.90519.90519,0,0,0-.35459-.30484.99043.99043,0,0,0-.98522-.00655,1.94314,1.94314,0,0,0-.69721.83168,2.00673,2.00673,0,0,0-.33663,1.22105,1.07446,1.07446,0,0,0,1.28351.75687,1.64656,1.64656,0,0,0,.68188-.52328l1.0877,1.08415a2.82157,2.82157,0,0,1-.89376.68823,2.04178,2.04178,0,0,1-.98784.17767,2.84512,2.84512,0,0,1-1.15279-.37647,3.51485,3.51485,0,0,1-1.156-.90087,2.34618,2.34618,0,0,1-.43276-1.2549,3.13174,3.13174,0,0,1,.42023-1.648m-8.8406-2.28351a2.76615,2.76615,0,0,1,1.118-1.88478A2.73653,2.73653,0,0,1,43.75,5.73888a2.83119,2.83119,0,0,1,1.90685,1.10884,2.74387,2.74387,0,0,1,.33009,2.1309,3.32808,3.32808,0,0,1-.61043,1.47072,2.261,2.261,0,0,1-1.08415.74733,3.07708,3.07708,0,0,1-1.539.04339,3.53163,3.53163,0,0,1-1.433-.576,2.23653,2.23653,0,0,1-.77276-1.09388,2.97534,2.97534,0,0,1-.07126-1.61641m-5.1247.85674a2.201,2.201,0,0,0-.882-.24313A3.72881,3.72881,0,0,1,32.847,8.05661a1.35372,1.35372,0,0,1-.56087-1.00354,1.39891,1.39891,0,0,1,.17169-.80325,1.57753,1.57753,0,0,1,.66934-.64522,3.52637,3.52637,0,0,1,1.30839-.33028,2.71155,2.71155,0,0,1,1.608.25248,1.64115,1.64115,0,0,1,.75369,1.15877L35.23915,6.916a.85782.85782,0,0,0-.311-.50458.84569.84569,0,0,0-.56349-.11857.67819.67819,0,0,0-.43034.16215.37816.37816,0,0,0-.12174.31176.32014.32014,0,0,0,.14363.22461,1.4209,1.4209,0,0,0,.5734.14924A6.67239,6.67239,0,0,1,36.13666,7.48a1.61537,1.61537,0,0,1,.73872.53918,1.49432,1.49432,0,0,1,.28652.77875,1.65282,1.65282,0,0,1-.20292.97811,1.79022,1.79022,0,0,1-.741.735,3.32022,3.32022,0,0,1-1.27753.33981A2.67044,2.67044,0,0,1,32.99061,10.48,2.05717,2.05717,0,0,1,32.274,9.19033l1.57021-.23715a1.18144,1.18144,0,0,0,.26463.56705.87757.87757,0,0,0,.76342.26856.83329.83329,0,0,0,.53226-.21863.48145.48145,0,0,0-.05274-.75967M17.52,12.83777a2.74347,2.74347,0,0,1,1.25864-1.77856A2.79158,2.79158,0,0,1,20.897,10.455a2.75878,2.75878,0,0,1,1.76359,1.24013,3.36862,3.36862,0,0,1,.63157,1.46417,2.23689,2.23689,0,0,1-.21414,1.3054,3.028,3.028,0,0,1-1.0316,1.13988,3.5053,3.5053,0,0,1-1.41087.623,2.26584,2.26584,0,0,1-1.32691-.199,3.00958,3.00958,0,0,1-1.20945-1.08135,2.76337,2.76337,0,0,1-.5792-2.10939m-5.70391,4.94442a3.00008,3.00008,0,0,1,.87207-.81915,1.94969,1.94969,0,0,1,.90686-.24929,2.32507,2.32507,0,0,1,.94987.17449,3.90862,3.90862,0,0,1,.91864.52945,3.54886,3.54886,0,0,1,.9538.96876,2.17194,2.17194,0,0,1,.31157.9192,1.793,1.793,0,0,1-.1094.85655,3.83362,3.83362,0,0,1-.47653.885l-1.4984,1.9811-4.3209-3.25863ZM8.30516,23.4457,13.215,25.73557l-.7103,1.5171-4.90347-2.29ZM6.21148,28.64185l1.30521.28016-.352,1.6669,3.98781.85075L10.8,33.078l-3.98407-.85318-.355,1.66971-1.305-.28371ZM5.04335,39.73192a4.03988,4.03988,0,0,1,.05312-1.196,1.27526,1.27526,0,0,1,.44249-.69122,1.51448,1.51448,0,0,1,.85617-.31195,1.50963,1.50963,0,0,1,.79147.14026,1.44421,1.44421,0,0,1,.56442.48906,2.06048,2.06048,0,0,1,.25472.56985,1.556,1.556,0,0,1,.1687-.44848,1.78253,1.78253,0,0,1,.26463-.2895,1.93078,1.93078,0,0,1,.31812-.25547l1.50438-.90966.13391,1.8816L8.80955,39.72a1.36754,1.36754,0,0,0-.39517.32354.72586.72586,0,0,0-.09669.4236l.01272.14382,2.187-.15579.12455,1.67869-5.39907.37441Zm1.77893,8.80357L11.14281,44.701l.62651,1.63567-.73854.56985.68861,1.77257.92219-.07481.61661,1.5979-5.78209.03422Zm5.60479,9.98759-1.636-2.24872a1.89917,1.89917,0,0,1-.44866-1.352,1.59161,1.59161,0,0,1,.72918-1.0907,1.64354,1.64354,0,0,1,1.32036-.352,2.13994,2.13994,0,0,1,1.2592.94389l.53563.74172,1.62632-1.17785.98728,1.35814ZM37.71024,63.2182A25.50927,25.50927,0,1,1,63.21783,37.71043,25.54369,25.54369,0,0,1,37.71024,63.2182m25.635-5.51689-5.57019-1.539,1.02842-1.4148.885.31157L60.803,53.51975l-.57-.741,1.00317-1.37683,3.18719,4.82529Zm3.6884-5.8567-1.2463-.4769.61062-1.58835L62.5973,48.31761l.59229-1.5575,3.80678,1.45782.61043-1.59172,1.24929.48307Zm2.51092-9.452a1.63333,1.63333,0,0,1-1.27454.53581l.04395-1.5762a.84938.84938,0,0,0,.5547-.21826.818.818,0,0,0,.21489-.53581.6547.6547,0,0,0-.08715-.44847.38.38,0,0,0-.28951-.17449.324.324,0,0,0-.24331.0995,1.58791,1.58791,0,0,0-.24612.54535,6.74046,6.74046,0,0,1-.61062,1.52028,1.59887,1.59887,0,0,1-.654.63212,1.53439,1.53439,0,0,1-.81653.14962,1.71484,1.71484,0,0,1-.92781-.37367,1.7826,1.7826,0,0,1-.59827-.85973,3.19249,3.19249,0,0,1-.115-1.31755,2.70371,2.70371,0,0,1,.6974-1.85991,2.07041,2.07041,0,0,1,1.3989-.47372l-.037,1.58855a1.19339,1.19339,0,0,0-.605.159.863.863,0,0,0-.39237.70712.8096.8096,0,0,0,.1152.56088.5026.5026,0,0,0,.37124.23059.50885.50885,0,0,0,.39236-.15523,2.175,2.175,0,0,0,.38639-.81989,3.63691,3.63691,0,0,1,.78791-1.50756,1.34622,1.34622,0,0,1,1.08415-.383,1.4973,1.4973,0,0,1,.76341.31083,1.649,1.649,0,0,1,.51693.77613,3.5311,3.5311,0,0,1,.09968,1.34579,2.68877,2.68877,0,0,1-.52983,1.542" style="fill: #fff;fill-rule: evenodd"/>
  </g>
</svg>
