<svg xmlns="http://www.w3.org/2000/svg" width="136.50513" height="210.56926" viewBox="0 0 136.50513 210.56926">
  <g>
    <path d="M0,47.43315S33.99927,57.58367,64.9541,48.957c30.95386-8.62708,63.9397-31.9701,71.551-39.07459L87.79126,77.37419l31.46155,66.47632L66.47717,101.73027,19.791,153.999,43.13428,82.95647Z" style="fill: #ce181e"/>
    <path d="M45.58276,20.19438c1.64063-12.371,10.82373-21.3573,20.50782-20.072,9.68518,1.28491,16.20459,12.35571,14.56091,24.7262C79.00928,37.21941,69.82886,46.20647,60.14465,44.92217,50.46057,43.63506,43.94019,32.56474,45.58276,20.19438Z" style="fill: #ce181e"/>
    <path d="M19.09839,206.50517h2.51587v-14.5133H19.02112v5.70849h-.0387a3.54177,3.54177,0,0,0-2.98022-1.39282c-3.0575,0-4.17981,2.43787-4.17981,5.18555,0,2.72888,1.12231,5.24426,4.17981,5.24426a3.69989,3.69989,0,0,0,3.05749-1.35437h.0387Zm-4.5669-5.01208c0-1.33508.46448-3.17334,2.14808-3.17334,1.66418,0,2.322,1.78052,2.322,3.17334,0,1.41272-.56092,3.23181-2.28333,3.23181C15.01538,204.7249,14.53149,202.86736,14.53149,201.49309Z" style="fill: #ce181e;fill-rule: evenodd"/>
    <path d="M32.26929,203.83476a6.72236,6.72236,0,0,1-3.30872,1.00635,2.605,2.605,0,0,1-2.84485-2.51562h6.889c0-3.48328-1.04517-6.018-4.74109-6.018-3.09607,0-4.62488,2.37964-4.62488,5.26306,0,3.27051,1.91553,5.16675,5.2052,5.16675a6.84371,6.84371,0,0,0,3.4253-.79346Zm-6.15357-3.28967a2.25775,2.25775,0,0,1,2.30286-2.34143c1.45129,0,2.03174,1.08374,2.10913,2.34143Z" style="fill: #ce181e;fill-rule: evenodd"/>
    <polygon points="40.634 206.505 48.646 206.505 48.646 204.377 43.343 204.377 43.343 200.584 48.162 200.584 48.162 198.455 43.343 198.455 43.343 195.127 48.607 195.127 48.607 192.998 40.634 192.998 40.634 206.505" style="fill: #ce181e;fill-rule: evenodd"/>
    <path d="M57.24976,196.67485a11.952,11.952,0,0,0-2.8252-.36731c-2.03235,0-3.90918.94812-3.90918,3.09571,0,3.5996,4.50879,2.2644,4.50879,4.21862,0,.9679-1.04492,1.21924-1.70288,1.21924a5.69219,5.69219,0,0,1-2.55457-.658l-.15466,2.12891a11.62487,11.62487,0,0,0,2.94116.42529c2.10974,0,4.18018-.92859,4.18018-3.251,0-3.59913-4.50928-2.5929-4.50928-4.17957,0-.85144.83228-1.10315,1.52918-1.10315a6.35634,6.35634,0,0,1,2.322.4259Z" style="fill: #ce181e;fill-rule: evenodd"/>
    <path d="M63.95776,198.31975c1.66394,0,2.322,1.78052,2.322,3.17334,0,1.41272-.561,3.23181-2.28357,3.23181-1.70276,0-2.18653-1.85754-2.18653-3.23181C61.80969,200.158,62.27405,198.31975,63.95776,198.31975Zm2.34131,12.24951h2.59339V196.53948H66.41528v1.41259h-.03869a3.28026,3.28026,0,0,0-3.03809-1.64453c-3.11572,0-4.23828,2.43787-4.23828,5.18555,0,2.72888,1.12256,5.24426,4.23828,5.24426a3.40633,3.40633,0,0,0,2.922-1.37378h.03857Z" style="fill: #ce181e;fill-rule: evenodd"/>
    <path d="M80.7085,196.53948H78.1156v4.87658c0,1.2771-.40662,3.30884-2.28381,3.30884-1.66419,0-1.68311-1.64453-1.68311-2.86414v-5.32128H71.5553v6.28906c0,2.24463,1.02551,3.90881,3.38647,3.90881a4.15576,4.15576,0,0,0,3.27014-1.58667h.03894v1.35449H80.7085Z" style="fill: #ce181e;fill-rule: evenodd"/>
    <path d="M91.36365,203.83476a6.72327,6.72327,0,0,1-3.309,1.00635,2.60485,2.60485,0,0,1-2.84448-2.51562h6.88916c0-3.48328-1.04517-6.018-4.74158-6.018-3.09583,0-4.62464,2.37964-4.62464,5.26306,0,3.27051,1.91565,5.16675,5.20533,5.16675a6.84386,6.84386,0,0,0,3.42517-.79346Zm-6.15344-3.28967a2.25774,2.25774,0,0,1,2.30285-2.34143c1.45105,0,2.03174,1.08374,2.10913,2.34143Z" style="fill: #ce181e;fill-rule: evenodd"/>
    <path d="M94.18176,206.50517h2.5929v-3.6571c0-1.432,0-4.06372,2.10925-4.06372a2.63274,2.63274,0,0,1,1.161.213v-2.61254a2.83389,2.83389,0,0,0-.79333-.07728,3.05254,3.05254,0,0,0-2.72852,2.4961H96.4845v-2.26416H94.18176Z" style="fill: #ce181e;fill-rule: evenodd"/>
    <path d="M107.93359,206.50517h2.51587v-14.5133H107.8562v5.70849h-.0387a3.54139,3.54139,0,0,0-2.9801-1.39282c-3.05761,0-4.17993,2.43787-4.17993,5.18555,0,2.72888,1.12232,5.24426,4.17993,5.24426a3.70006,3.70006,0,0,0,3.0575-1.35437h.03869Zm-4.56689-5.01208c0-1.33508.46448-3.17334,2.14807-3.17334,1.66419,0,2.322,1.78052,2.322,3.17334,0,1.41272-.56091,3.23181-2.28332,3.23181C103.85059,204.7249,103.3667,202.86736,103.3667,201.49309Z" style="fill: #ce181e;fill-rule: evenodd"/>
    <path d="M114.95081,203.62187c0-1.52856,1.72229-1.72216,2.8833-1.72216h1.12256a3.30218,3.30218,0,0,1-.54188,2.05114,2.20169,2.20169,0,0,1-1.81933.89026C115.667,204.84111,114.95081,204.47356,114.95081,203.62187Zm-1.31592-4.33447a5.21663,5.21663,0,0,1,3.077-1.08374c1.52869,0,2.24476.54175,2.24476,2.14819h-1.43238a7.89081,7.89081,0,0,0-3.34753.58045,2.92747,2.92747,0,0,0-1.70276,2.84436c0,1.8966,1.72192,2.96069,3.48328,2.96069a3.55988,3.55988,0,0,0,3.07678-1.722h.03869a12.20744,12.20744,0,0,0,.11585,1.48986h2.28369c-.05811-.7738-.0968-1.4707-.11621-2.22546-.01929-.73523-.0387-1.48975-.0387-2.49622v-1.2771c0-2.94152-1.25793-4.19885-4.29626-4.19885a8.92412,8.92412,0,0,0-3.46362.7544Z" style="fill: #ce181e;fill-rule: evenodd"/>
    <path d="M14.74158,188.873H25.48047c3.87292,0,10.827-1.14441,10.827-8.89013,0-3.785-2.86084-6.60218-7.042-6.99793v-.0885c3.6532-.66,6.11792-3.21265,6.11792-6.86536,0-6.73388-5.942-7.87817-9.90295-7.87817H14.74158Zm6.16162-25.87866h2.37659c2.81713,0,5.942.264,5.942,3.82849,0,3.16919-3.21289,3.74146-5.80981,3.74146H20.9032Zm0,12.14709h2.90515c3.08044,0,6.3374.616,6.3374,4.6211,0,3.5647-3.47656,4.26916-6.3374,4.26916H20.9032Z" style="fill: #ce181e;fill-rule: evenodd"/>
    <rect x="41.22058" y="155.86418" width="5.89709" height="33.00879" style="fill: #ce181e"/>
    <path d="M58.01709,176.98967c0-3.38879,1.84888-6.734,5.67749-6.734,3.87354,0,5.72168,3.25733,5.72168,6.734,0,3.78491-1.18787,7.83447-5.72168,7.83447C59.20581,184.82414,58.01709,180.73088,58.01709,176.98967Zm-6.1615.70459c0,6.51331,4.35718,11.70642,11.839,11.70642,7.526,0,11.8833-5.19311,11.8833-11.70642,0-7.48205-5.14941-12.015-11.8833-12.015C57.005,165.67925,51.85559,170.21221,51.85559,177.69426Z" style="fill: #ce181e;fill-rule: evenodd"/>
    <path d="M95.4104,166.42729a19.18692,19.18692,0,0,0-5.72082-.748c-7.08643,0-10.95948,5.19311-10.95948,11.75109,0,6.90955,3.74146,11.97034,11.179,11.97034a19.21816,19.21816,0,0,0,5.89782-.74792l-.264-4.88489a12.50746,12.50746,0,0,1-4.53308,1.05627c-4.13758,0-6.118-3.21289-6.118-7.3938,0-4.26928,2.33313-7.17468,5.98584-7.17468a8.913,8.913,0,0,1,4.00513.83631Z" style="fill: #ce181e;fill-rule: evenodd"/>
    <path d="M104.4176,176.98967c0-3.38879,1.84876-6.734,5.67737-6.734,3.87354,0,5.7218,3.25733,5.7218,6.734,0,3.78491-1.18811,7.83447-5.7218,7.83447C105.6062,184.82414,104.4176,180.73088,104.4176,176.98967Zm-6.1615.70459c0,6.51331,4.35706,11.70642,11.83887,11.70642,7.52612,0,11.8833-5.19311,11.8833-11.70642,0-7.48205-5.14978-12.015-11.8833-12.015C103.4054,165.67925,98.2561,170.21221,98.2561,177.69426Z" style="fill: #ce181e;fill-rule: evenodd"/>
  </g>
</svg>
