<svg xmlns="http://www.w3.org/2000/svg" width="243.55054" height="119.41201" viewBox="0 0 243.55054 119.41201">
  <g>
    <path d="M0,36.77993s26.3634,7.87085,50.366,1.18164c24.00183-6.68945,49.57959-24.79,55.48144-30.29882L68.0741,59.99649,92.47,111.54312,51.547,78.88247,15.34619,119.412,33.44666,64.3251Z" style="fill: #ce181e"/>
    <path d="M35.34521,15.65884c1.27234-9.59253,8.39307-16.56055,15.902-15.564,7.51.99634,12.56531,9.58082,11.2909,19.17286-1.27369,9.59253-8.39222,16.561-15.90149,15.56518C39.12769,33.83511,34.07178,25.25088,35.34521,15.65884Z" style="fill: #ce181e"/>
    <path d="M121.82629,94.89175h2.97657V77.72012h-3.068v6.75415h-.04577a4.19067,4.19067,0,0,0-3.52613-1.64819c-3.61755,0-4.94567,2.88476-4.94567,6.13549,0,3.22876,1.32812,6.20484,4.94567,6.20484a4.37737,4.37737,0,0,0,3.61744-1.6023h.04589Zm-5.40344-5.93018c0-1.57934.54944-3.75463,2.54126-3.75463,1.96912,0,2.74768,2.10668,2.74768,3.75463,0,1.67163-.66382,3.824-2.70178,3.824C116.99512,92.78555,116.42285,90.58755,116.42285,88.96157Z" style="fill: #ce181e;fill-rule: evenodd"/>
    <path d="M137.40967,91.73208a7.95336,7.95336,0,0,1-3.915,1.19092,3.082,3.082,0,0,1-3.36572-2.97656h8.15075c0-4.1211-1.23645-7.12036-5.60949-7.12036-3.66309,0-5.47205,2.81567-5.47205,6.22729,0,3.86963,2.26648,6.113,6.15894,6.113a8.10021,8.10021,0,0,0,4.05261-.93848ZM130.12891,87.84a2.67116,2.67116,0,0,1,2.72448-2.77026c1.71717,0,2.40393,1.28222,2.49561,2.77026Z" style="fill: #ce181e;fill-rule: evenodd"/>
    <polygon points="147.307 94.892 156.785 94.892 156.785 92.373 150.512 92.373 150.512 87.886 156.213 87.886 156.213 85.367 150.512 85.367 150.512 81.429 156.74 81.429 156.74 78.911 147.307 78.911 147.307 94.892" style="fill: #ce181e;fill-rule: evenodd"/>
    <path d="M166.96558,83.26089a14.14714,14.14714,0,0,0-3.34278-.43481c-2.40429,0-4.62512,1.12182-4.62512,3.66284,0,4.25879,5.33472,2.6792,5.33472,4.99145,0,1.145-1.23633,1.44263-2.0149,1.44263a6.73616,6.73616,0,0,1-3.02209-.77856l-.18323,2.51879a13.74436,13.74436,0,0,0,3.48.50318c2.49585,0,4.94556-1.09863,4.94556-3.84644,0-4.2583-5.33484-3.06762-5.33484-4.94507,0-1.00756.9845-1.30517,1.80908-1.30517a7.52327,7.52327,0,0,1,2.74744.50366Z" style="fill: #ce181e;fill-rule: evenodd"/>
    <path d="M174.90222,85.20694c1.96887,0,2.74756,2.10668,2.74756,3.75463,0,1.67163-.66406,3.824-2.70178,3.824-2.01489,0-2.58728-2.198-2.58728-3.824C172.36072,87.38223,172.91028,85.20694,174.90222,85.20694Zm2.77039,14.49316H180.741V83.10073h-2.93091v1.67115h-.04578a3.88175,3.88175,0,0,0-3.5946-1.9458c-3.6864,0-5.01441,2.88476-5.01441,6.13549,0,3.22876,1.328,6.20484,5.01441,6.20484a4.02968,4.02968,0,0,0,3.457-1.62525h.0459Z" style="fill: #ce181e;fill-rule: evenodd"/>
    <path d="M194.72144,83.10073h-3.06788v5.76954c0,1.51123-.4812,3.91528-2.7019,3.91528-1.96924,0-1.9917-1.946-1.9917-3.38892v-6.2959H183.8916v7.44092c0,2.656,1.21338,4.62476,4.00684,4.62476a4.91709,4.91709,0,0,0,3.86914-1.8772h.0459v1.60254h2.908Z" style="fill: #ce181e;fill-rule: evenodd"/>
    <path d="M207.32812,91.73208a7.952,7.952,0,0,1-3.91479,1.19092,3.082,3.082,0,0,1-3.36572-2.97656h8.15088c0-4.1211-1.23633-7.12036-5.60962-7.12036-3.66309,0-5.47217,2.81567-5.47217,6.22729,0,3.86963,2.26684,6.113,6.15893,6.113a8.09808,8.09808,0,0,0,4.05249-.93848ZM200.04761,87.84a2.67119,2.67119,0,0,1,2.72461-2.77026c1.717,0,2.40381,1.28222,2.4956,2.77026Z" style="fill: #ce181e;fill-rule: evenodd"/>
    <path d="M210.6626,94.89175h3.06762v-4.3269c0-1.69458,0-4.80835,2.49585-4.80835a3.11876,3.11876,0,0,1,1.37378.25219V82.91787a3.34284,3.34284,0,0,0-.93872-.09179,3.612,3.612,0,0,0-3.22851,2.95337H213.387V83.10073H210.6626Z" style="fill: #ce181e;fill-rule: evenodd"/>
    <path d="M226.93335,94.89175h2.97656V77.72012H226.8418v6.75415h-.04566A4.19034,4.19034,0,0,0,223.27,82.82608c-3.61768,0-4.94556,2.88476-4.94556,6.13549,0,3.22876,1.32788,6.20484,4.94556,6.20484a4.37815,4.37815,0,0,0,3.61768-1.6023h.04565Zm-5.40356-5.93018c0-1.57934.54956-3.75463,2.5415-3.75463,1.969,0,2.74756,2.10668,2.74756,3.75463,0,1.67163-.66382,3.824-2.70166,3.824C222.10229,92.78555,221.52979,90.58755,221.52979,88.96157Z" style="fill: #ce181e;fill-rule: evenodd"/>
    <path d="M235.23584,91.48037c0-1.80859,2.03784-2.03759,3.41162-2.03759h1.32788a3.90821,3.90821,0,0,1-.64087,2.42675,2.60515,2.60515,0,0,1-2.15259,1.05347C236.08325,92.923,235.23584,92.48794,235.23584,91.48037ZM233.679,86.352a6.17,6.17,0,0,1,3.64062-1.28222c1.80859,0,2.65576.64111,2.65576,2.5415h-1.69458a9.33676,9.33676,0,0,0-3.96094.687,3.46354,3.46354,0,0,0-2.0144,3.36524c0,2.24389,2.03735,3.50293,4.12109,3.50293a4.21217,4.21217,0,0,0,3.64063-2.03736h.04565a14.412,14.412,0,0,0,.13721,1.7627h2.7019c-.06884-.91553-.11474-1.74-.13745-2.63306-.02295-.86987-.0459-1.76269-.0459-2.95337v-1.511c0-3.48047-1.48828-4.96826-5.083-4.96826a10.56334,10.56334,0,0,0-4.09839.89257Z" style="fill: #ce181e;fill-rule: evenodd"/>
    <path d="M116.67126,74.02993H129.3772c4.58239,0,12.8103-1.354,12.8103-10.51855,0-4.47827-3.385-7.81152-8.33191-8.27979V55.1271c4.32239-.781,7.23853-3.80127,7.23853-8.123,0-7.96728-7.03052-9.321-11.71692-9.321H116.67126ZM123.96143,43.411h2.81189c3.33337,0,7.03064.31225,7.03064,4.52978,0,3.74976-3.80127,4.42676-6.87391,4.42676h-2.96862Zm0,14.37207h3.43737c3.64478,0,7.49829.72876,7.49829,5.46753,0,4.21777-4.1134,5.05127-7.49829,5.05127h-3.43737Z" style="fill: #ce181e;fill-rule: evenodd"/>
    <rect x="148.00049" y="34.975" width="6.97729" height="39.05493" style="fill: #ce181e"/>
    <path d="M167.87366,59.96987c0-4.00952,2.18725-7.96728,6.7174-7.96728,4.58313,0,6.76978,3.85376,6.76978,7.96728,0,4.47828-1.40564,9.26954-6.76978,9.26954C169.28015,69.23941,167.87366,64.39639,167.87366,59.96987Zm-7.29016.8335c0,7.70679,5.15527,13.85108,14.00756,13.85108,8.90455,0,14.05982-6.14429,14.05982-13.85108,0-8.85229-6.09253-14.21558-14.05982-14.21558C166.6759,46.58779,160.5835,51.95108,160.5835,60.80337Z" style="fill: #ce181e;fill-rule: evenodd"/>
    <path d="M212.11621,47.47305a22.69472,22.69472,0,0,0-6.7688-.88526c-8.38428,0-12.96679,6.14429-12.96679,13.90357,0,8.175,4.42675,14.16309,13.22656,14.16309a22.72893,22.72893,0,0,0,6.978-.88526l-.31226-5.77954a14.7939,14.7939,0,0,1-5.36353,1.24976c-4.89526,0-7.23852-3.80127-7.23852-8.74805,0-5.05127,2.76025-8.48877,7.08227-8.48877a10.54241,10.54241,0,0,1,4.73877.9895Z" style="fill: #ce181e;fill-rule: evenodd"/>
    <path d="M222.77319,59.96987c0-4.00952,2.1875-7.96728,6.71729-7.96728,4.583,0,6.76977,3.85376,6.76977,7.96728,0,4.47828-1.40551,9.26954-6.76977,9.26954C224.17969,69.23941,222.77319,64.39639,222.77319,59.96987Zm-7.29.8335c0,7.70679,5.155,13.85108,14.00733,13.85108,8.90454,0,14.06006-6.14429,14.06006-13.85108,0-8.85229-6.093-14.21558-14.06006-14.21558C221.57568,46.58779,215.48315,51.95108,215.48315,60.80337Z" style="fill: #ce181e;fill-rule: evenodd"/>
  </g>
</svg>
