<svg xmlns="http://www.w3.org/2000/svg" width="136.50513" height="210.56916" viewBox="0 0 136.50513 210.56916">
  <g>
    <path d="M0,47.43317S33.99927,57.58357,64.9541,48.957c30.95386-8.6272,63.9397-31.97022,71.551-39.07471L87.79126,77.37409l31.46167,66.47632L66.47705,101.73017,19.791,153.99873,43.13428,82.95649Z" style="fill: #fff"/>
    <path d="M45.58276,20.19428C47.22363,7.82331,56.40649-1.163,66.09058.12238c9.68505,1.28479,16.20459,12.35559,14.561,24.72608C79.00928,37.21931,69.82886,46.20637,60.14453,44.92207,50.46045,43.63508,43.94019,32.56452,45.58276,20.19428Z" style="fill: #fff"/>
    <path d="M19.09839,206.50507h2.51587v-14.5133h-2.593v5.70862h-.03882a3.54211,3.54211,0,0,0-2.98022-1.39307c-3.05738,0-4.17993,2.438-4.17993,5.18567,0,2.72888,1.12255,5.24414,4.17993,5.24414a3.70017,3.70017,0,0,0,3.05761-1.35425h.03858Zm-4.5669-5.01208c0-1.33508.46436-3.17346,2.14795-3.17346,1.66431,0,2.32227,1.78064,2.32227,3.17346,0,1.41272-.561,3.23181-2.28345,3.23181C15.01538,204.7248,14.53149,202.86726,14.53149,201.493Z" style="fill: #fff;fill-rule: evenodd"/>
    <path d="M32.26929,203.83466a6.72243,6.72243,0,0,1-3.30884,1.00635,2.60494,2.60494,0,0,1-2.84473-2.51562h6.88892c0-3.48328-1.04492-6.01807-4.741-6.01807-3.09619,0-4.625,2.37976-4.625,5.26318,0,3.27051,1.91577,5.16663,5.20532,5.16663a6.84372,6.84372,0,0,0,3.4253-.79334ZM26.11572,200.545a2.25769,2.25769,0,0,1,2.30274-2.34131c1.45141,0,2.032,1.08362,2.10937,2.34131Z" style="fill: #fff;fill-rule: evenodd"/>
    <polygon points="40.634 206.505 48.646 206.505 48.646 204.376 43.343 204.376 43.343 200.584 48.162 200.584 48.162 198.455 43.343 198.455 43.343 195.127 48.607 195.127 48.607 192.998 40.634 192.998 40.634 206.505" style="fill: #fff;fill-rule: evenodd"/>
    <path d="M57.24976,196.67487a11.94344,11.94344,0,0,0-2.8252-.36755c-2.03223,0-3.90918.94824-3.90918,3.0957,0,3.59973,4.50879,2.26441,4.50879,4.21875,0,.9679-1.04492,1.21924-1.70288,1.21924a5.69344,5.69344,0,0,1-2.55444-.65784l-.15479,2.12879a11.62474,11.62474,0,0,0,2.94116.42517c2.10962,0,4.18018-.92847,4.18018-3.25086,0-3.599-4.50928-2.59289-4.50928-4.17956,0-.85144.83228-1.103,1.5293-1.103a6.35728,6.35728,0,0,1,2.322.42578Z" style="fill: #fff;fill-rule: evenodd"/>
    <path d="M63.95776,198.31953c1.66407,0,2.322,1.78064,2.322,3.17346,0,1.41272-.561,3.23181-2.28345,3.23181-1.70288,0-2.18677-1.85754-2.18677-3.23181C61.80957,200.15791,62.27393,198.31953,63.95776,198.31953Zm2.34131,12.24963h2.59326V196.53938H66.41528V197.952h-.03857a3.281,3.281,0,0,0-3.03833-1.64465c-3.11572,0-4.238,2.438-4.238,5.18567,0,2.72888,1.12232,5.24414,4.238,5.24414a3.40628,3.40628,0,0,0,2.92212-1.37366h.03857Z" style="fill: #fff;fill-rule: evenodd"/>
    <path d="M80.7085,196.53938H78.11572V201.416c0,1.2771-.40674,3.30884-2.28369,3.30884-1.66431,0-1.68335-1.64453-1.68335-2.864v-5.32141h-2.5935v6.28894c0,2.24487,1.02563,3.90881,3.38671,3.90881a4.1556,4.1556,0,0,0,3.27-1.58655h.03882v1.35449H80.7085Z" style="fill: #fff;fill-rule: evenodd"/>
    <path d="M91.36353,203.83466a6.72166,6.72166,0,0,1-3.30884,1.00635,2.60485,2.60485,0,0,1-2.84448-2.51562h6.88916c0-3.48328-1.04517-6.01807-4.74146-6.01807-3.096,0-4.62476,2.37976-4.62476,5.26318,0,3.27051,1.91578,5.16663,5.20533,5.16663a6.84339,6.84339,0,0,0,3.425-.79334ZM85.21021,200.545a2.25768,2.25768,0,0,1,2.30273-2.34131c1.45117,0,2.03174,1.08362,2.10913,2.34131Z" style="fill: #fff;fill-rule: evenodd"/>
    <path d="M94.18164,206.50507h2.593V202.848c0-1.432,0-4.06384,2.10937-4.06384a2.63219,2.63219,0,0,1,1.16089.21313v-2.61255a2.83047,2.83047,0,0,0-.79321-.07739,3.0532,3.0532,0,0,0-2.72876,2.49609h-.03857v-2.264H94.18164Z" style="fill: #fff;fill-rule: evenodd"/>
    <path d="M107.93359,206.50507h2.51587v-14.5133H107.8562v5.70862h-.03857a3.54212,3.54212,0,0,0-2.98023-1.39307c-3.05761,0-4.17993,2.438-4.17993,5.18567,0,2.72888,1.12232,5.24414,4.17993,5.24414a3.70019,3.70019,0,0,0,3.05762-1.35425h.03857ZM103.3667,201.493c0-1.33508.46435-3.17346,2.148-3.17346,1.66431,0,2.322,1.78064,2.322,3.17346,0,1.41272-.56079,3.23181-2.2832,3.23181C103.85059,204.7248,103.3667,202.86726,103.3667,201.493Z" style="fill: #fff;fill-rule: evenodd"/>
    <path d="M114.95068,203.62177c0-1.52856,1.72242-1.72216,2.88355-1.72216h1.12231a3.3021,3.3021,0,0,1-.54175,2.051,2.20162,2.20162,0,0,1-1.81933.89038C115.667,204.841,114.95068,204.47346,114.95068,203.62177ZM113.635,199.2873a5.21558,5.21558,0,0,1,3.0769-1.08362c1.52857,0,2.24463.54163,2.24463,2.14807h-1.43213a7.89168,7.89168,0,0,0-3.34765.58045,2.92762,2.92762,0,0,0-1.70288,2.84448c0,1.89648,1.72216,2.96045,3.4834,2.96045a3.55943,3.55943,0,0,0,3.07666-1.72192h.03881a12.1354,12.1354,0,0,0,.116,1.48986h2.28345c-.05811-.7738-.09668-1.4707-.11621-2.22546-.01929-.73523-.03858-1.48975-.03858-2.49622v-1.2771c0-2.9414-1.258-4.199-4.29614-4.199a8.92771,8.92771,0,0,0-3.46387.75439Z" style="fill: #fff;fill-rule: evenodd"/>
    <path d="M14.74146,188.87287h10.739c3.873,0,10.82715-1.14429,10.82715-8.89026,0-3.78491-2.86109-6.602-7.042-6.9978v-.0885c3.65308-.66,6.11792-3.21253,6.11792-6.86536,0-6.73376-5.94213-7.87817-9.90307-7.87817h-10.739Zm6.16162-25.87866h2.37671c2.81713,0,5.94213.26392,5.94213,3.82849,0,3.16919-3.21289,3.74146-5.80981,3.74146h-2.509Zm0,12.14709h2.90527c3.08032,0,6.3374.616,6.3374,4.6211,0,3.5647-3.47656,4.26929-6.3374,4.26929H20.90308Z" style="fill: #fff;fill-rule: evenodd"/>
    <rect x="41.22046" y="155.86408" width="5.89722" height="33.00879" style="fill: #fff"/>
    <path d="M58.01709,176.98957c0-3.38879,1.84888-6.73389,5.67749-6.73389,3.87354,0,5.72168,3.25721,5.72168,6.73389,0,3.78491-1.188,7.83435-5.72168,7.83435C59.20581,184.82392,58.01709,180.73078,58.01709,176.98957Zm-6.16162.70459c0,6.51343,4.35718,11.70642,11.83911,11.70642,7.52588,0,11.8833-5.193,11.8833-11.70642,0-7.48205-5.14941-12.01514-11.8833-12.01514C57.00488,165.679,51.85547,170.21211,51.85547,177.69416Z" style="fill: #fff;fill-rule: evenodd"/>
    <path d="M95.4104,166.42719a19.18629,19.18629,0,0,0-5.721-.74817c-7.08642,0-10.95947,5.19336-10.95947,11.7511,0,6.90967,3.74146,11.97046,11.179,11.97046a19.21851,19.21851,0,0,0,5.89794-.74792l-.26416-4.88489a12.50438,12.50438,0,0,1-4.53295,1.05615c-4.13746,0-6.11792-3.21265-6.11792-7.3938,0-4.269,2.333-7.17444,5.98559-7.17444a8.91252,8.91252,0,0,1,4.00537.83631Z" style="fill: #fff;fill-rule: evenodd"/>
    <path d="M104.41748,176.98957c0-3.38879,1.84888-6.73389,5.67749-6.73389,3.87354,0,5.72168,3.25721,5.72168,6.73389,0,3.78491-1.188,7.83435-5.72168,7.83435C105.6062,184.82392,104.41748,180.73078,104.41748,176.98957Zm-6.16138.70459c0,6.51343,4.35694,11.70642,11.83887,11.70642,7.52612,0,11.8833-5.193,11.8833-11.70642,0-7.48205-5.14966-12.01514-11.8833-12.01514C103.40552,165.679,98.2561,170.21211,98.2561,177.69416Z" style="fill: #fff;fill-rule: evenodd"/>
  </g>
</svg>
