<?xml version="1.0" encoding="utf-8"?>
<!-- Generator: Adobe Illustrator 24.2.1, SVG Export Plug-In . SVG Version: 6.00 Build 0)  -->
<svg version="1.1" id="Layer_1" xmlns="http://www.w3.org/2000/svg" xmlns:xlink="http://www.w3.org/1999/xlink" x="0px" y="0px"
	 viewBox="0 0 322.51 105.78" style="enable-background:new 0 0 322.51 105.78;" xml:space="preserve">
<style type="text/css">
	.st0{fill:#D20A11;}
	.st1{fill:#005F30;}
	.st2{fill:#FFEC00;}
</style>
<g>
	<g>
		<polyline class="st0" points="27.05,63.09 27.05,63.09 27.05,56.13 27.05,14.35 78.76,14.35 78.76,77.87 49.48,77.87 49.48,84.82 
			78.76,84.82 85.72,84.82 85.72,7.4 20.09,7.4 20.09,56.13 20.09,63.09 20.09,63.09 		"/>
		<rect x="52.54" y="91.37" class="st1" width="33.18" height="6.96"/>
		<rect x="6.58" y="7.4" class="st1" width="6.96" height="45.68"/>
		<polygon class="st1" points="49.48,87.05 49.48,81.24 49.48,63.09 27.05,63.09 27.05,68.9 43.77,68.9 43.77,81.24 43.77,87.05 
			43.77,92.52 12.04,92.52 12.04,68.9 27.05,68.9 27.05,63.09 6.58,63.09 6.58,98.33 49.48,98.33 		"/>
		<polygon class="st2" points="20.09,68.9 27.05,68.9 27.05,77.87 43.77,77.87 43.77,84.82 20.09,84.82 		"/>
	</g>
	<g>
		<path d="M117.79,46.99h-9.19V30.62h8.82v2.31h-6.11v4.63h5.63v2.29h-5.63v4.84h6.47v2.3H117.79z"/>
		<path d="M129.77,46.99h-9.06V30.62h2.72v14.07h6.35v2.3H129.77z"/>
		<path d="M141.32,46.99h-9.19V30.62h8.82v2.31h-6.11v4.63h5.63v2.29h-5.63v4.84h6.47v2.3H141.32z"/>
		<path d="M147.01,46.99h-2.8V30.62h2.8V46.99z"/>
		<path d="M162.46,46.31c-1.23,0.64-2.77,0.96-4.6,0.96c-2.37,0-4.28-0.75-5.71-2.25s-2.15-3.47-2.15-5.9c0-2.62,0.8-4.73,2.41-6.35
			c1.61-1.61,3.64-2.42,6.1-2.42c1.58,0,2.9,0.22,3.94,0.67v2.69c-1.1-0.65-2.32-0.98-3.65-0.98c-1.77,0-3.21,0.57-4.31,1.7
			c-1.1,1.13-1.65,2.65-1.65,4.54c0,1.8,0.51,3.24,1.54,4.31s2.38,1.6,4.05,1.6c1.55,0,2.88-0.37,4.02-1.1L162.46,46.31
			L162.46,46.31z M160.25,49.82c0,1.48-1.1,2.21-3.29,2.21c-0.36,0-0.67-0.01-0.92-0.03v-1.27c0.33,0.05,0.6,0.07,0.81,0.07
			c1.01,0,1.52-0.31,1.52-0.94c0-0.56-0.46-0.84-1.38-0.84c-0.08,0-0.22,0.02-0.44,0.05v-2.08h1.55v1.07c0.66,0,1.19,0.15,1.57,0.46
			C160.06,48.84,160.25,49.27,160.25,49.82z"/>
		<path d="M172.31,47.27c-2.36,0-4.25-0.76-5.67-2.29c-1.42-1.53-2.13-3.52-2.13-5.97c0-2.63,0.72-4.73,2.17-6.3
			c1.44-1.57,3.41-2.35,5.89-2.35c2.3,0,4.15,0.76,5.55,2.28c1.4,1.52,2.11,3.51,2.11,5.97c0,2.67-0.72,4.78-2.16,6.34
			C176.63,46.49,174.71,47.27,172.31,47.27z M172.43,32.74c-1.5,0-2.72,0.56-3.66,1.68c-0.94,1.12-1.41,2.59-1.41,4.42
			c0,1.82,0.46,3.28,1.37,4.39c0.91,1.11,2.11,1.67,3.58,1.67c1.57,0,2.81-0.53,3.71-1.59c0.91-1.06,1.36-2.54,1.36-4.44
			c0-1.96-0.44-3.47-1.32-4.53C175.19,33.27,173.98,32.74,172.43,32.74z M176.35,26.05c0,0.88-0.2,1.6-0.59,2.16
			s-0.92,0.84-1.59,0.84c-0.55,0-1.18-0.18-1.88-0.55c-0.59-0.34-1.05-0.51-1.38-0.51c-0.64,0-0.96,0.42-0.96,1.27h-1.31
			c0-0.91,0.19-1.63,0.58-2.17s0.93-0.82,1.63-0.82c0.52,0,1.11,0.19,1.79,0.58c0.55,0.34,1.02,0.5,1.43,0.5
			c0.62,0,0.93-0.43,0.93-1.3C175,26.05,176.35,26.05,176.35,26.05z"/>
		<path d="M192.42,46.99h-9.19V30.62h8.82v2.31h-6.11v4.63h5.63v2.29h-5.63v4.84h6.47v2.3H192.42z"/>
		<path d="M194.58,46.34v-2.8c0.25,0.23,0.55,0.43,0.9,0.62s0.71,0.34,1.1,0.46c0.39,0.13,0.78,0.22,1.16,0.29
			c0.39,0.07,0.75,0.1,1.07,0.1c1.14,0,1.99-0.19,2.55-0.57s0.84-0.93,0.84-1.66c0-0.39-0.09-0.73-0.28-1.01
			c-0.19-0.29-0.45-0.55-0.78-0.78c-0.33-0.24-0.73-0.46-1.18-0.68s-0.94-0.44-1.45-0.68c-0.56-0.3-1.07-0.6-1.55-0.9
			c-0.48-0.3-0.9-0.64-1.25-1.01c-0.35-0.37-0.63-0.79-0.83-1.25s-0.3-1.01-0.3-1.63c0-0.77,0.17-1.44,0.52-2
			c0.35-0.57,0.8-1.03,1.37-1.4c0.57-0.37,1.21-0.64,1.93-0.82c0.72-0.18,1.46-0.27,2.22-0.27c1.71,0,2.96,0.19,3.74,0.58v2.68
			c-0.93-0.67-2.12-1-3.59-1c-0.4,0-0.8,0.04-1.2,0.11c-0.4,0.08-0.76,0.2-1.07,0.38c-0.32,0.18-0.57,0.4-0.77,0.67
			s-0.3,0.6-0.3,0.99c0,0.37,0.08,0.68,0.23,0.95s0.37,0.51,0.67,0.73c0.29,0.22,0.65,0.44,1.07,0.64c0.42,0.21,0.91,0.44,1.47,0.68
			c0.57,0.3,1.11,0.61,1.62,0.94s0.95,0.69,1.34,1.08s0.69,0.84,0.91,1.32s0.34,1.03,0.34,1.65c0,0.83-0.17,1.53-0.5,2.1
			s-0.79,1.03-1.35,1.39c-0.57,0.36-1.22,0.62-1.96,0.78s-1.52,0.24-2.34,0.24c-0.27,0-0.61-0.02-1.01-0.06s-0.81-0.1-1.23-0.18
			s-0.81-0.18-1.19-0.29C195.11,46.62,194.81,46.49,194.58,46.34z"/>
		<path d="M122.05,75.05h-2.98l-1.47-4.17h-6.44l-1.42,4.17h-2.97l6.13-16.37h3.06L122.05,75.05z M116.88,68.66l-2.27-6.53
			c-0.07-0.21-0.14-0.56-0.22-1.03h-0.05c-0.07,0.43-0.15,0.78-0.23,1.03l-2.25,6.53H116.88z"/>
		<path d="M136.53,68.42c0,4.6-2.18,6.89-6.53,6.89c-4.17,0-6.26-2.21-6.26-6.63v-10h2.72v9.45c0,3.21,1.25,4.82,3.74,4.82
			c2.41,0,3.61-1.55,3.61-4.65v-9.62h2.72V68.42z"/>
		<path d="M150.88,60.98h-4.7v14.06h-2.72V60.98h-4.69v-2.31h12.11V60.98z"/>
		<path d="M165.13,75.05h-2.98l-1.47-4.17h-6.44l-1.42,4.17h-2.97l6.13-16.37h3.06L165.13,75.05z M159.96,68.66l-2.27-6.53
			c-0.07-0.21-0.14-0.56-0.22-1.03h-0.05c-0.07,0.43-0.15,0.78-0.23,1.03l-2.25,6.53H159.96z M160.55,53.27l-3.26,3.74h-1.96
			l2.76-3.74H160.55z"/>
		<path d="M180.02,75.05h-3.17l-2.61-4.38c-0.24-0.4-0.47-0.75-0.69-1.03c-0.22-0.29-0.45-0.52-0.68-0.7s-0.48-0.32-0.76-0.4
			c-0.27-0.08-0.58-0.13-0.93-0.13h-1.1v6.64h-2.71V58.68h5.39c0.77,0,1.48,0.09,2.12,0.27c0.65,0.18,1.21,0.46,1.69,0.83
			c0.48,0.37,0.85,0.83,1.12,1.38c0.27,0.55,0.4,1.2,0.4,1.93c0,0.58-0.08,1.11-0.26,1.59c-0.17,0.48-0.41,0.91-0.73,1.29
			c-0.32,0.38-0.7,0.7-1.14,0.96c-0.44,0.27-0.95,0.47-1.5,0.62v0.05c0.3,0.17,0.55,0.35,0.78,0.55c0.22,0.2,0.43,0.41,0.63,0.62
			s0.39,0.45,0.59,0.72c0.19,0.27,0.41,0.58,0.64,0.94L180.02,75.05z M170.08,60.88v5.32h2.26c0.42,0,0.8-0.06,1.16-0.19
			c0.35-0.13,0.66-0.32,0.92-0.56c0.26-0.24,0.46-0.54,0.61-0.89c0.14-0.35,0.22-0.74,0.22-1.18c0-0.78-0.25-1.4-0.74-1.84
			s-1.21-0.66-2.13-0.66H170.08z"/>
		<path d="M188.45,75.32c-1.18,0-2.25-0.2-3.21-0.6s-1.78-0.97-2.45-1.7c-0.68-0.73-1.2-1.6-1.58-2.61s-0.56-2.13-0.56-3.36
			c0-1.31,0.19-2.5,0.57-3.56c0.38-1.07,0.91-1.97,1.61-2.73c0.7-0.75,1.54-1.34,2.54-1.75s2.11-0.62,3.35-0.62
			c1.14,0,2.18,0.2,3.13,0.6c0.94,0.4,1.75,0.97,2.42,1.7s1.19,1.6,1.56,2.61c0.37,1.01,0.55,2.13,0.55,3.34
			c0,1.61-0.27,3.03-0.81,4.24c-0.54,1.21-1.3,2.19-2.28,2.93l4.75,3.42h-4.13l-2.92-2.27c-0.39,0.11-0.79,0.19-1.21,0.25
			C189.34,75.29,188.9,75.32,188.45,75.32z M188.57,60.79c-0.75,0-1.43,0.15-2.05,0.44c-0.62,0.29-1.15,0.71-1.6,1.24
			c-0.45,0.54-0.8,1.18-1.04,1.92c-0.25,0.75-0.37,1.58-0.37,2.49c0,0.91,0.12,1.73,0.36,2.48c0.24,0.75,0.58,1.38,1.01,1.91
			s0.95,0.94,1.56,1.23s1.28,0.44,2.02,0.44c0.78,0,1.49-0.14,2.11-0.41c0.62-0.27,1.15-0.67,1.59-1.18s0.77-1.14,1.01-1.89
			c0.24-0.75,0.35-1.59,0.35-2.55c0-0.97-0.11-1.84-0.34-2.6c-0.23-0.76-0.56-1.4-0.98-1.92c-0.43-0.52-0.95-0.92-1.56-1.19
			C190.03,60.93,189.34,60.79,188.57,60.79z"/>
		<path d="M211.96,68.42c0,4.6-2.18,6.89-6.53,6.89c-4.17,0-6.26-2.21-6.26-6.63v-10h2.72v9.45c0,3.21,1.25,4.82,3.74,4.82
			c2.41,0,3.61-1.55,3.61-4.65v-9.62h2.72L211.96,68.42L211.96,68.42z"/>
		<path d="M218.59,75.05h-2.8V58.68h2.8V75.05z"/>
		<path d="M234.04,74.36c-1.23,0.64-2.77,0.96-4.6,0.96c-2.37,0-4.28-0.75-5.71-2.25c-1.43-1.5-2.15-3.47-2.15-5.9
			c0-2.62,0.8-4.73,2.41-6.35c1.61-1.61,3.64-2.42,6.1-2.42c1.58,0,2.9,0.22,3.94,0.67v2.69c-1.1-0.65-2.32-0.98-3.65-0.98
			c-1.77,0-3.21,0.57-4.31,1.7c-1.1,1.13-1.65,2.65-1.65,4.54c0,1.8,0.51,3.24,1.54,4.31s2.38,1.6,4.05,1.6
			c1.55,0,2.88-0.37,4.02-1.1L234.04,74.36L234.04,74.36z"/>
		<path d="M250.59,75.05h-2.98l-1.47-4.17h-6.44l-1.42,4.17h-2.97l6.13-16.37h3.06L250.59,75.05z M245.42,68.66l-2.27-6.53
			c-0.07-0.21-0.14-0.56-0.22-1.03h-0.05c-0.07,0.43-0.15,0.78-0.23,1.03l-2.25,6.53H245.42z"/>
		<path d="M252.08,74.39v-2.8c0.25,0.23,0.55,0.43,0.9,0.62s0.71,0.34,1.1,0.46c0.39,0.13,0.78,0.22,1.16,0.29s0.75,0.1,1.07,0.1
			c1.14,0,1.99-0.19,2.55-0.57s0.84-0.93,0.84-1.66c0-0.39-0.09-0.73-0.28-1.01c-0.19-0.29-0.45-0.55-0.78-0.78
			c-0.33-0.24-0.73-0.46-1.18-0.68c-0.45-0.22-0.94-0.44-1.45-0.68c-0.56-0.3-1.07-0.6-1.55-0.9c-0.48-0.3-0.9-0.64-1.25-1.01
			c-0.35-0.37-0.63-0.79-0.83-1.25s-0.3-1.01-0.3-1.63c0-0.77,0.17-1.44,0.52-2c0.35-0.57,0.8-1.03,1.37-1.4
			c0.57-0.37,1.21-0.64,1.93-0.82c0.72-0.18,1.46-0.27,2.22-0.27c1.71,0,2.96,0.19,3.74,0.58v2.68c-0.93-0.67-2.12-1-3.59-1
			c-0.4,0-0.8,0.04-1.2,0.11c-0.4,0.08-0.76,0.2-1.07,0.38c-0.32,0.18-0.57,0.4-0.77,0.67s-0.3,0.6-0.3,0.99
			c0,0.37,0.08,0.68,0.23,0.95s0.37,0.51,0.67,0.73c0.29,0.22,0.65,0.44,1.07,0.64c0.42,0.21,0.91,0.44,1.47,0.68
			c0.57,0.3,1.11,0.61,1.62,0.94c0.51,0.33,0.95,0.69,1.34,1.08c0.39,0.39,0.69,0.84,0.91,1.32c0.22,0.48,0.34,1.03,0.34,1.65
			c0,0.83-0.17,1.53-0.5,2.1s-0.79,1.03-1.35,1.39c-0.57,0.36-1.22,0.62-1.96,0.78c-0.74,0.16-1.52,0.24-2.34,0.24
			c-0.27,0-0.61-0.02-1.01-0.06s-0.81-0.1-1.23-0.18s-0.81-0.18-1.19-0.29S252.31,74.54,252.08,74.39z"/>
		<path d="M281.36,75.05h-10.27v-1.27c0-0.52,0.07-1,0.22-1.46c0.15-0.45,0.34-0.88,0.58-1.28s0.53-0.78,0.86-1.13
			c0.33-0.35,0.68-0.7,1.05-1.03s0.75-0.65,1.14-0.96s0.77-0.62,1.14-0.93c0.35-0.3,0.67-0.59,0.96-0.87
			c0.29-0.28,0.54-0.58,0.74-0.88c0.21-0.3,0.37-0.63,0.48-0.96c0.11-0.34,0.17-0.71,0.17-1.1c0-0.43-0.07-0.81-0.2-1.14
			c-0.13-0.32-0.32-0.59-0.56-0.81s-0.52-0.38-0.85-0.49c-0.33-0.11-0.68-0.17-1.07-0.17c-0.67,0-1.35,0.16-2.04,0.47
			s-1.36,0.78-2,1.4v-2.55c0.33-0.25,0.67-0.47,1.02-0.66c0.34-0.19,0.7-0.34,1.06-0.47c0.37-0.12,0.75-0.22,1.15-0.28
			c0.4-0.06,0.83-0.09,1.29-0.09c0.74,0,1.41,0.1,2.01,0.29c0.6,0.19,1.11,0.48,1.54,0.86c0.43,0.38,0.75,0.85,0.99,1.41
			c0.23,0.56,0.35,1.21,0.35,1.94c0,0.66-0.08,1.26-0.25,1.79c-0.16,0.53-0.39,1.02-0.7,1.48s-0.66,0.89-1.09,1.3
			c-0.43,0.41-0.9,0.83-1.43,1.27c-0.44,0.36-0.88,0.71-1.32,1.04c-0.44,0.34-0.83,0.67-1.18,0.99s-0.63,0.65-0.85,0.97
			s-0.32,0.65-0.32,0.98v0.06h7.38L281.36,75.05L281.36,75.05z"/>
		<path d="M289.26,75.32c-1.7,0-3.03-0.7-3.99-2.09c-0.95-1.39-1.43-3.41-1.43-6.04c0-2.89,0.5-5.08,1.49-6.56
			c1-1.48,2.44-2.23,4.32-2.23c3.6,0,5.4,2.8,5.4,8.39c0,2.77-0.51,4.88-1.52,6.34C292.51,74.59,291.09,75.32,289.26,75.32z
			 M289.52,60.51c-1.99,0-2.98,2.19-2.98,6.56c0,4.09,0.97,6.14,2.92,6.14c1.92,0,2.88-2.08,2.88-6.24
			C292.34,62.67,291.4,60.51,289.52,60.51z"/>
		<path d="M307.32,75.05h-10.27v-1.27c0-0.52,0.07-1,0.22-1.46c0.15-0.45,0.34-0.88,0.58-1.28s0.53-0.78,0.86-1.13
			c0.33-0.35,0.68-0.7,1.05-1.03s0.75-0.65,1.14-0.96s0.77-0.62,1.14-0.93c0.35-0.3,0.67-0.59,0.96-0.87
			c0.29-0.28,0.54-0.58,0.74-0.88c0.21-0.3,0.37-0.63,0.48-0.96c0.11-0.34,0.17-0.71,0.17-1.1c0-0.43-0.07-0.81-0.2-1.14
			c-0.13-0.32-0.32-0.59-0.56-0.81s-0.52-0.38-0.85-0.49c-0.33-0.11-0.68-0.17-1.07-0.17c-0.67,0-1.35,0.16-2.04,0.47
			s-1.36,0.78-2,1.4v-2.55c0.33-0.25,0.67-0.47,1.02-0.66c0.34-0.19,0.7-0.34,1.06-0.47c0.37-0.12,0.75-0.22,1.15-0.28
			c0.4-0.06,0.83-0.09,1.29-0.09c0.74,0,1.41,0.1,2.01,0.29c0.6,0.19,1.11,0.48,1.54,0.86c0.43,0.38,0.75,0.85,0.99,1.41
			s0.35,1.21,0.35,1.94c0,0.66-0.08,1.26-0.25,1.79c-0.16,0.53-0.39,1.02-0.7,1.48s-0.66,0.89-1.09,1.3
			c-0.43,0.41-0.9,0.83-1.43,1.27c-0.44,0.36-0.88,0.71-1.32,1.04c-0.44,0.34-0.83,0.67-1.18,0.99s-0.63,0.65-0.85,0.97
			s-0.32,0.65-0.32,0.98v0.06h7.38L307.32,75.05L307.32,75.05z"/>
		<path d="M315.93,58.31v16.73h-2.65V61.55c-0.48,0.34-1,0.63-1.55,0.87c-0.55,0.24-1.18,0.45-1.89,0.63v-2.26
			c0.44-0.14,0.87-0.3,1.28-0.46s0.82-0.34,1.22-0.54s0.8-0.42,1.21-0.66s0.83-0.52,1.26-0.83h1.12V58.31z"/>
		<path d="M114.02,88.13c0-0.43-0.06-0.8-0.19-1.13c-0.13-0.33-0.31-0.6-0.54-0.83c-0.23-0.22-0.51-0.39-0.84-0.5
			c-0.33-0.11-0.69-0.17-1.08-0.17c-0.6,0-1.18,0.14-1.73,0.43c-0.56,0.29-1.08,0.67-1.57,1.14v-1.33c0.48-0.41,1-0.72,1.56-0.95
			c0.56-0.23,1.2-0.34,1.91-0.34c0.11,0,0.22,0.01,0.32,0.02c0.1,0.01,0.21,0.03,0.31,0.06c0.46,0.05,0.88,0.17,1.26,0.35
			c0.38,0.18,0.7,0.42,0.97,0.72c0.27,0.29,0.48,0.64,0.63,1.05c0.15,0.4,0.22,0.85,0.22,1.35c0,0.58-0.08,1.09-0.23,1.55
			c-0.15,0.46-0.37,0.88-0.64,1.26c-0.28,0.39-0.61,0.75-1,1.09s-0.83,0.68-1.31,1.03c-0.54,0.39-1,0.73-1.39,1.03
			c-0.38,0.3-0.7,0.58-0.96,0.85c-0.25,0.27-0.45,0.54-0.58,0.81c-0.13,0.27-0.22,0.57-0.25,0.9c-0.03,0.09-0.05,0.18-0.06,0.26
			c-0.01,0.09-0.01,0.18-0.01,0.29h6.71v1.08h-7.98V97.5c0-0.6,0.07-1.12,0.21-1.57c0.14-0.44,0.36-0.86,0.66-1.24
			c0.3-0.39,0.69-0.77,1.16-1.15c0.47-0.38,1.03-0.81,1.69-1.29c0.44-0.33,0.84-0.64,1.18-0.94c0.35-0.3,0.63-0.62,0.86-0.94
			s0.41-0.67,0.53-1.03C113.96,88.98,114.02,88.57,114.02,88.13z"/>
		<path d="M126.09,93.87c0,0.66-0.1,1.26-0.31,1.81c-0.2,0.55-0.49,1.03-0.85,1.42c-0.37,0.4-0.8,0.71-1.31,0.94
			c-0.5,0.23-1.06,0.34-1.66,0.34c-0.65,0-1.23-0.14-1.74-0.41c-0.51-0.27-0.94-0.67-1.3-1.2c-0.35-0.53-0.62-1.17-0.81-1.94
			s-0.28-1.64-0.28-2.61c0-1.17,0.12-2.24,0.37-3.2s0.6-1.78,1.07-2.46c0.46-0.68,1.03-1.2,1.69-1.57s1.41-0.55,2.24-0.55
			s1.53,0.12,2.1,0.36v1.19c-0.66-0.33-1.35-0.5-2.09-0.5c-0.63,0-1.2,0.15-1.71,0.45c-0.51,0.3-0.95,0.72-1.3,1.26
			c-0.36,0.55-0.63,1.2-0.83,1.96c-0.19,0.76-0.29,1.6-0.29,2.52h0.04c0.65-1.32,1.72-1.97,3.22-1.97c0.57,0,1.09,0.1,1.55,0.31
			c0.46,0.21,0.85,0.49,1.18,0.86s0.58,0.81,0.76,1.32C126,92.71,126.09,93.27,126.09,93.87z M124.85,94.06
			c0-0.49-0.06-0.95-0.19-1.35c-0.13-0.41-0.31-0.75-0.55-1.04c-0.24-0.29-0.53-0.51-0.87-0.66s-0.74-0.24-1.18-0.24
			c-0.41,0-0.8,0.08-1.15,0.24c-0.35,0.16-0.66,0.38-0.92,0.66c-0.26,0.28-0.46,0.59-0.6,0.95s-0.22,0.73-0.22,1.12
			c0,0.49,0.07,0.95,0.21,1.39s0.33,0.82,0.58,1.14c0.25,0.33,0.55,0.58,0.9,0.78s0.74,0.29,1.17,0.29c0.41,0,0.79-0.08,1.14-0.24
			c0.35-0.16,0.64-0.39,0.89-0.68s0.44-0.64,0.58-1.03C124.78,94.97,124.85,94.53,124.85,94.06z"/>
		<path d="M133.89,98.15V84.67h3.54c2.31,0,4.05,0.55,5.23,1.66s1.77,2.74,1.77,4.9c0,1.04-0.17,1.99-0.49,2.84
			c-0.33,0.85-0.8,1.58-1.42,2.19s-1.37,1.07-2.26,1.4s-1.88,0.49-2.99,0.49C137.27,98.15,133.89,98.15,133.89,98.15z M135.14,85.81
			v11.2h2.07c0.93,0,1.76-0.13,2.49-0.38c0.73-0.25,1.35-0.62,1.86-1.1c0.51-0.49,0.89-1.09,1.16-1.8c0.27-0.71,0.4-1.54,0.4-2.46
			c0-3.63-1.92-5.45-5.76-5.45h-2.22V85.81z"/>
		<path d="M147.13,98.15V84.67h6.57v1.15h-5.32v4.94h4.93v1.13h-4.93v5.12H154v1.14C154,98.15,147.13,98.15,147.13,98.15z"/>
		<path d="M161.55,96.17c0.23,0.17,0.48,0.32,0.75,0.46c0.27,0.13,0.55,0.25,0.84,0.34c0.28,0.09,0.57,0.16,0.86,0.21
			c0.29,0.05,0.56,0.07,0.83,0.07c1.02,0,1.79-0.2,2.29-0.59c0.51-0.39,0.76-0.96,0.76-1.7c0-0.36-0.06-0.67-0.18-0.94
			c-0.12-0.27-0.3-0.52-0.55-0.75s-0.57-0.46-0.95-0.69s-0.84-0.49-1.36-0.78c-0.58-0.31-1.07-0.61-1.48-0.89
			c-0.41-0.28-0.75-0.56-1.01-0.86c-0.26-0.29-0.45-0.61-0.57-0.94c-0.12-0.34-0.18-0.72-0.18-1.16c0-0.55,0.12-1.03,0.35-1.47
			c0.23-0.43,0.55-0.8,0.94-1.1c0.39-0.3,0.86-0.54,1.39-0.7c0.53-0.16,1.1-0.24,1.7-0.24c1.06,0,1.95,0.15,2.66,0.44v1.38
			c-0.8-0.46-1.73-0.69-2.8-0.69c-0.4,0-0.78,0.05-1.13,0.15s-0.66,0.24-0.93,0.43c-0.27,0.19-0.48,0.42-0.63,0.7
			c-0.15,0.28-0.23,0.6-0.23,0.97c0,0.35,0.05,0.65,0.16,0.91c0.1,0.25,0.27,0.49,0.5,0.72s0.53,0.45,0.9,0.67s0.83,0.48,1.37,0.77
			c0.56,0.3,1.06,0.59,1.48,0.88s0.77,0.58,1.05,0.89s0.49,0.64,0.63,0.99s0.21,0.73,0.21,1.16c0,0.59-0.11,1.11-0.33,1.56
			s-0.53,0.82-0.92,1.11s-0.86,0.52-1.41,0.67s-1.14,0.23-1.8,0.23c-0.21,0-0.47-0.02-0.76-0.05s-0.59-0.08-0.89-0.15
			s-0.59-0.14-0.86-0.24c-0.27-0.09-0.49-0.19-0.66-0.3v-1.47H161.55z"/>
		<path d="M171.98,98.15V84.67h6.57v1.15h-5.32v4.94h4.93v1.13h-4.93v5.12h5.62v1.14C178.85,98.15,171.98,98.15,171.98,98.15z"/>
		<path d="M185.55,85.81v12.33h-1.25V85.81h-3.88v-1.15h9.02v1.15H185.55z"/>
		<path d="M191.66,98.15V84.67h6.57v1.15h-5.32v4.94h4.93v1.13h-4.93v5.12h5.62v1.14C198.53,98.15,191.66,98.15,191.66,98.15z"/>
		<path d="M213.27,98.15v-9.31c0-0.48,0.04-1.24,0.11-2.3h-0.04c-0.09,0.28-0.17,0.53-0.24,0.73c-0.07,0.21-0.14,0.38-0.2,0.51
			l-4.7,10.37h-0.54l-4.71-10.3c-0.14-0.31-0.28-0.76-0.42-1.33h-0.04c0.03,0.29,0.04,0.62,0.05,0.99c0.01,0.37,0.01,0.78,0.01,1.23
			v9.41h-1.22V84.67h1.48l4.58,10.13c0.09,0.21,0.19,0.43,0.28,0.65s0.17,0.46,0.25,0.71h0.06c0.09-0.25,0.17-0.48,0.24-0.69
			s0.16-0.43,0.27-0.67l4.62-10.14h1.4v13.48L213.27,98.15L213.27,98.15z"/>
		<path d="M218,98.15V84.67h3.68c0.56,0,1.06,0.08,1.51,0.23s0.83,0.36,1.15,0.63c0.32,0.27,0.56,0.6,0.73,0.98
			c0.17,0.38,0.25,0.8,0.25,1.26c0,0.39-0.05,0.75-0.16,1.09s-0.26,0.65-0.46,0.93c-0.2,0.28-0.45,0.52-0.74,0.72
			c-0.29,0.2-0.62,0.37-0.99,0.48v0.04c0.45,0.04,0.86,0.15,1.23,0.33s0.69,0.4,0.95,0.69c0.26,0.28,0.47,0.61,0.61,0.99
			s0.22,0.79,0.22,1.25c0,0.57-0.1,1.09-0.31,1.57c-0.21,0.47-0.5,0.88-0.87,1.22c-0.37,0.34-0.82,0.61-1.33,0.79
			c-0.51,0.19-1.08,0.28-1.7,0.28L218,98.15L218,98.15z M219.25,85.81v4.78H221c0.46,0,0.87-0.06,1.24-0.18s0.69-0.29,0.95-0.52
			c0.26-0.23,0.46-0.5,0.61-0.82c0.14-0.32,0.21-0.68,0.21-1.08c0-1.46-0.91-2.19-2.73-2.19h-2.03V85.81z M219.25,91.73v5.28h2.32
			c1,0,1.76-0.23,2.3-0.7c0.53-0.47,0.8-1.13,0.8-1.99c0-1.73-1.18-2.59-3.53-2.59C221.14,91.73,219.25,91.73,219.25,91.73z"/>
		<path d="M236.1,98.15l-2.03-3.86c-0.2-0.38-0.39-0.7-0.58-0.96s-0.38-0.46-0.58-0.62c-0.2-0.15-0.41-0.26-0.64-0.33
			s-0.48-0.1-0.77-0.1h-1.49v5.87h-1.25V84.67h3.88c0.51,0,1,0.08,1.47,0.23s0.9,0.37,1.27,0.67c0.37,0.29,0.67,0.66,0.89,1.11
			s0.33,0.96,0.33,1.55c0,0.48-0.07,0.92-0.22,1.32c-0.14,0.4-0.35,0.76-0.62,1.07c-0.27,0.31-0.59,0.57-0.97,0.79
			s-0.81,0.38-1.28,0.48v0.04c0.18,0.08,0.35,0.17,0.5,0.29s0.3,0.26,0.44,0.43s0.28,0.36,0.42,0.58s0.28,0.47,0.43,0.75l2.27,4.17
			L236.1,98.15L236.1,98.15z M230.01,85.81v5.33h2.24c0.45,0,0.86-0.07,1.24-0.2s0.7-0.32,0.96-0.56c0.27-0.24,0.47-0.54,0.62-0.88
			s0.22-0.73,0.22-1.17c0-0.78-0.25-1.4-0.76-1.85c-0.5-0.45-1.23-0.67-2.19-0.67L230.01,85.81L230.01,85.81z"/>
		<path d="M245.16,98.38c-0.97,0-1.85-0.18-2.62-0.53c-0.78-0.35-1.44-0.84-1.98-1.45s-0.96-1.34-1.25-2.17s-0.44-1.72-0.44-2.67
			c0-1.05,0.15-2.02,0.44-2.89c0.29-0.87,0.72-1.62,1.27-2.25c0.56-0.62,1.24-1.11,2.05-1.46s1.73-0.52,2.76-0.52
			c0.95,0,1.81,0.17,2.57,0.51c0.76,0.34,1.4,0.81,1.94,1.42s0.94,1.32,1.23,2.15c0.28,0.83,0.43,1.73,0.43,2.7
			c0,1.02-0.14,1.97-0.42,2.84c-0.28,0.87-0.69,1.63-1.23,2.27s-1.21,1.14-2,1.5C247.11,98.2,246.19,98.38,245.16,98.38z
			 M245.26,85.58c-0.82,0-1.54,0.16-2.17,0.47s-1.16,0.73-1.59,1.26s-0.76,1.15-0.98,1.86s-0.34,1.47-0.34,2.27
			c-0.01,0.76,0.09,1.5,0.3,2.19c0.2,0.7,0.51,1.32,0.92,1.85c0.41,0.54,0.93,0.96,1.56,1.28s1.36,0.48,2.2,0.48
			s1.58-0.15,2.21-0.44c0.64-0.29,1.17-0.7,1.59-1.21c0.43-0.52,0.75-1.13,0.96-1.85c0.21-0.71,0.32-1.49,0.32-2.34
			c0-0.79-0.1-1.54-0.29-2.25c-0.19-0.71-0.49-1.33-0.89-1.86s-0.92-0.95-1.55-1.26C246.89,85.73,246.14,85.58,245.26,85.58z"/>
	</g>
</g>
</svg>
