<svg width="155" height="64" viewBox="0 0 155 64" version="1.1" xmlns="http://www.w3.org/2000/svg"><g fill="#FFF" stroke="none" stroke-width="1" fill-rule="evenodd"><path d="M150.957136,30.84289 C148.577808,28.48339 145.23364,27.18989 141.522413,27.18989 C137.838716,27.18989 134.524699,28.48339 132.116531,30.84289 C129.793573,33.14649 128.490514,36.46149 128.490514,40.11319 L128.490514,63.79789 L135.346649,63.79789 L135.346649,39.97279 C135.346649,36.15209 137.669607,33.84979 141.522413,33.84979 C145.404061,33.84979 147.755859,36.15209 147.755859,39.97279 L147.755859,63.79789 L154.610682,63.79789 L154.610682,40.11319 C154.583153,36.46149 153.307624,33.17379 150.957136,30.84289 Z M115.260666,39.94549 C115.260666,36.12479 112.936397,33.82119 109.028531,33.82119 C105.203254,33.82119 102.851455,36.12479 102.851455,39.94549 L102.851455,47.25019 L115.260666,47.25019 L115.260666,39.94549 Z M122.115489,63.79789 L115.260666,63.79789 L115.260666,53.82429 L102.851455,53.82429 L102.851455,63.79789 L95.995321,63.79789 L95.995321,40.11319 C95.995321,36.46149 97.2983798,33.17379 99.6213378,30.84289 C102.000666,28.48339 105.344834,27.18989 109.028531,27.18989 C112.767287,27.18989 116.081304,28.48339 118.461943,30.84289 C120.78359,33.14649 122.08796,36.46149 122.08796,40.11319 L122.08796,63.79789 L122.115489,63.79789 Z M78.0631866,33.62489 C74.4922286,33.62489 71.5177412,36.65909 71.5177412,40.42259 L71.5177412,47.16569 L78.0631866,47.16569 C81.6878924,47.16569 84.6636908,44.13149 84.6636908,40.42259 C84.6348504,36.65909 81.6878924,33.62489 78.0631866,33.62489 Z M78.5718252,53.40309 L71.5177412,53.40309 L71.5177412,63.79789 L64.6616067,63.79789 L64.6616067,40.28219 C64.6616067,33.09059 70.4703126,27.21849 78.0631866,27.21849 C85.6835899,27.21849 91.4909849,33.09059 91.4909849,40.28219 C91.4909849,47.72729 85.3152202,53.40309 78.5718252,53.40309 Z"/><path d="M18.0583765,31.09548 C14.998679,38.96178 8.99202353,32.72438 7.23538487,30.58978 C12.7045613,25.64588 17.4068471,26.00988 18.0583765,31.09548"/><path d="M6.69777479,28.93228 C7.83041345,26.34788 1.59827899,23.62308 0.522010084,26.93808 C0.351589916,27.44248 1.08832941,28.23028 1.1735395,28.31348 C2.2498084,29.43798 5.76308571,31.01098 6.69777479,28.93228"/><path d="M6.4705916,32.0229 C4.37442353,28.652 -1.97176134,32.1074 0.606826891,34.242 C2.22188571,35.5914 5.81906218,34.8036 6.4705916,32.0229"/><path d="M10.2670286,35.44996 C8.36881008,33.17496 4.2328437,34.85976 4.79916303,37.80946 C7.03822185,39.43966 10.1542891,38.37236 10.2670286,35.44996"/><path d="M11.7116672,25.9545 C12.6751966,24.5206 6.66854118,21.0379 6.3578521,24.2411 C6.13106218,26.5161 10.5226588,27.6679 11.7116672,25.9545"/><path d="M41.5724269,31.09548 C44.6321244,38.96178 50.6387798,32.72438 52.3941076,30.58978 C46.926242,25.64588 42.2527966,26.00988 41.5724269,31.09548"/><path d="M52.9328975,28.93228 C51.8002588,26.34788 58.0323933,23.62308 59.1086622,26.93808 C59.2790824,27.44248 58.5423429,28.23028 58.4571328,28.31348 C57.3808639,29.43798 53.8675866,31.01098 52.9328975,28.93228"/><path d="M53.1031866,32.50026 C56.0776739,28.87586 61.6019092,32.10766 59.0246319,34.24226 C57.4371025,35.59036 53.9238252,34.88836 53.1031866,32.50026"/><path d="M49.3629882,35.44996 C51.2612067,33.17496 55.398484,34.85976 54.8308538,37.80946 C52.5931059,39.43966 49.4757277,38.37236 49.3629882,35.44996"/><path d="M47.9465345,25.9545 C47.0970555,23.6509 52.9896605,21.0665 53.3003496,24.2411 C53.5284504,26.5161 48.7960134,28.2854 47.9465345,25.9545"/><path d="M29.6453748,10.24985 C26.6420471,13.00325 18.0017445,21.99275 29.8996941,25.58855 C37.2946185,24.12865 37.4637277,17.66635 29.6453748,10.24985"/><path d="M32.025358,9.29448 C35.4809546,10.24998 39.3062319,1.37228 34.348316,0.16328 C33.5827361,-0.03302 32.5064672,1.11878 32.3937277,1.23058 C30.8061983,2.91668 29.6735597,8.64838 32.025358,9.29448"/><path d="M26.7271261,9.4068 C26.9250756,9.4627 27.265916,9.4068 27.4074958,9.2664 C32.1386218,5.8942 26.4439664,-2.9263 23.5546891,0.9789 C21.7692101,3.4788 23.1286387,8.4799 26.7271261,9.4068"/><path d="M22.7611866,15.13811 C25.9336235,12.18711 22.0519765,5.75471 18.7379597,7.46811 C15.8775227,9.43501 18.4836403,15.24991 22.7611866,15.13811"/><path d="M36.8976706,16.23375 C40.3821076,17.21655 43.5833849,8.45195 38.8810992,8.31155 C35.4805613,8.22705 33.3568639,15.22235 36.8976706,16.23375"/><path d="M19.4179361,48.48558 C22.9600538,46.46278 24.2054319,44.07468 21.8536336,41.04048 C17.9156168,42.98008 18.710037,45.73348 19.4179361,48.48558"/><path d="M14.2899933,41.93982 C15.5655227,40.70352 17.0953714,40.31092 18.1991697,38.51302 C13.8927832,36.32122 9.75681681,40.73212 8.62417815,44.13162 C12.7037748,45.92952 17.8596403,44.01982 18.3407496,38.93422 C17.1805815,40.59172 15.7634723,41.37822 14.2899933,41.93982"/><path d="M39.4191025,41.041 C37.0686151,44.0752 38.3428336,46.4633 41.8561109,48.4861 C42.5915395,45.7327 43.3859597,42.9793 39.4191025,41.041"/><path d="M39.4759966,24.99926 C34.9991899,26.60086 33.073442,29.10076 35.1696101,33.06186 C40.0999966,31.62926 39.7591563,28.31426 39.4759966,24.99926"/><path d="M20.0132269,23.84707 C20.0971261,26.17927 20.1548067,28.56737 23.7532941,29.15627 C24.8570924,26.20657 23.2997143,24.57767 20.0132269,23.84707"/><path d="M18.1716403,23.0607 C16.131842,22.0493 15.0831025,20.3359 14.1772538,18.538 C15.6507328,20.2228 17.0665311,21.9648 19.1063294,23.2284 C20.2678084,16.7401 16.3586319,13.7891 11.0611866,11.7663 C9.13412773,18.2286 12.6185647,23.1166 18.1716403,23.0607"/><path d="M41.4872168,23.0607 C43.5270151,22.0493 44.5757546,20.3359 45.4816034,18.538 C44.0081244,20.2228 42.5923261,21.9648 40.5525277,23.2284 C39.3910487,16.7401 43.3002252,13.7618 48.6265109,11.7663 C50.5247294,18.2286 47.0402924,23.1166 41.4872168,23.0607"/><path d="M43.1022756,38.48416 C44.2073849,40.28206 45.7372336,40.67596 47.0114521,41.91226 C45.5379731,41.35066 44.1221748,40.56416 42.9606958,38.87806 C43.4142756,43.96366 48.5976706,45.87336 52.6497378,44.07546 C51.5446286,40.73186 47.4086622,36.29236 43.1022756,38.48416"/><path d="M26.1606756,59.61176 C20.6639697,60.59456 15.5369445,61.94396 10.8910286,63.79776 C15.8476336,62.89816 22.9593983,61.80356 30.1262218,61.80356 C37.2943563,61.80356 44.4048101,62.92676 49.3627261,63.79776 C42.4790622,60.45416 33.6971798,59.49866 33.6971798,59.49866 C32.5632303,47.30596 35.7081378,40.45106 40.4104235,34.07326 C35.3961378,33.20356 36.7844067,39.72046 33.9226588,39.13026 C29.9571126,38.28786 34.4902891,29.35426 32.3928101,26.54366 C30.1262218,27.72406 31.1185916,33.34266 29.4183227,34.97286 C27.6341546,32.83696 28.5400034,27.41466 25.6782555,26.26416 C24.0645076,28.90446 27.662995,33.76516 26.5565748,35.67486 C24.092037,35.00016 23.1285076,29.97176 20.4371798,29.97176 C19.6440706,32.80966 24.6871966,35.30956 24.7724067,37.69766 C23.0446084,37.94986 21.2879697,34.94426 18.8234319,35.11326 C20.0976504,38.00706 22.3642387,37.97846 24.092037,40.33926 C27.4925748,45.02966 26.3022555,49.55366 26.1331462,55.53756 L26.1331462,59.61176 L26.1606756,59.61176 Z"/></g></svg>